<?xml version="1.0" standalone="no"?>
<!DOCTYPE svg PUBLIC "-//W3C//DTD SVG 20010904//EN"
 "http://www.w3.org/TR/2001/REC-SVG-20010904/DTD/svg10.dtd">
<svg version="1.0" xmlns="http://www.w3.org/2000/svg"
 width="600.000000pt" height="600.000000pt" viewBox="0 0 600.000000 600.000000"
 preserveAspectRatio="xMidYMid meet">

<g transform="translate(0.000000,600.000000) scale(0.100000,-0.100000)"
fill="#000000" stroke="none">
<path d="M2807 5984 c-48 -7 -135 -29 -193 -49 -252 -84 -457 -232 -618 -445
-240 -318 -331 -722 -251 -1115 48 -235 168 -497 376 -823 44 -68 79 -126 79
-128 0 -2 -37 21 -82 51 -174 118 -391 210 -588 252 -106 22 -362 25 -465 4
-243 -48 -458 -160 -638 -330 -205 -196 -342 -447 -404 -741 -25 -119 -25
-401 0 -520 43 -206 137 -420 251 -571 329 -435 848 -613 1361 -464 261 76
472 197 904 520 122 91 224 165 227 165 12 0 -29 -369 -61 -555 -67 -390 -175
-637 -364 -836 -167 -177 -374 -292 -671 -374 l-85 -24 1415 0 1415 0 -85 24
c-297 82 -504 197 -671 374 -251 264 -353 581 -425 1323 -3 38 -3 68 0 68 3 0
55 -40 114 -88 436 -359 775 -542 1154 -624 131 -28 345 -30 456 -5 243 56
439 160 615 326 205 196 342 447 404 741 25 119 25 401 0 520 -29 136 -64 236
-127 365 -182 369 -517 627 -915 706 -103 21 -349 18 -455 -5 -192 -41 -370
-121 -644 -286 -44 -27 -44 -25 23 70 325 458 475 964 406 1375 -35 211 -131
432 -261 605 -284 376 -742 565 -1197 494z"/>
</g>
</svg>
