<svg xmlns="http://www.w3.org/2000/svg" version="1.0" width="600.000000pt" height="600.000000pt" viewBox="0 0 600.000000 600.000000" preserveAspectRatio="xMidYMid meet">

<g transform="translate(0.000000,600.000000) scale(0.100000,-0.100000)" fill="#FE4365" stroke="none">
<path d="M2946 5853 c-221 -584 -491 -1079 -804 -1472 -98 -124 -399 -425 -523 -523 -393 -313 -888 -583 -1471 -804 -71 -26 -128 -50 -128 -54 0 -4 57 -28 128 -54 583 -221 1078 -491 1471 -804 124 -98 425 -399 523 -523 313 -393 583 -888 804 -1471 26 -71 50 -128 54 -128 4 0 28 57 54 128 221 583 491 1078 804 1471 98 124 399 425 523 523 393 313 890 585 1472 804 70 26 127 50 127 54 0 4 -57 28 -127 54 -584 221 -1079 491 -1472 804 -124 98 -425 399 -523 523 -313 393 -583 888 -804 1472 -26 70 -50 127 -54 127 -4 0 -28 -57 -54 -127z" fill="#FE4365"/>
</g>
</svg>