<svg xmlns="http://www.w3.org/2000/svg" version="1.0" width="600.000000pt" height="600.000000pt" viewBox="0 0 600.000000 600.000000" preserveAspectRatio="xMidYMid meet">

<g transform="translate(0.000000,600.000000) scale(0.100000,-0.100000)" fill="#FE4365" stroke="none">
<path d="M1341 5989 c-384 -43 -718 -199 -945 -439 -342 -364 -464 -901 -355 -1555 66 -395 185 -709 399 -1050 223 -356 495 -664 1139 -1288 749 -725 1093 -1119 1359 -1554 32 -51 59 -93 62 -93 3 0 30 42 62 93 266 435 610 829 1359 1554 518 502 751 753 961 1030 221 294 385 599 477 886 97 305 149 665 137 948 -18 427 -148 769 -392 1029 -200 212 -492 362 -822 422 -157 28 -480 31 -621 4 -479 -89 -790 -360 -991 -866 -59 -147 -160 -511 -160 -574 0 -9 -4 -16 -10 -16 -5 0 -10 9 -10 20 0 38 -98 406 -135 505 -203 548 -522 842 -1010 930 -109 19 -389 27 -504 14z" fill="#FE4365"/>
</g>
</svg>