<svg xmlns="http://www.w3.org/2000/svg" xmlns:xlink="http://www.w3.org/1999/xlink" version="1.1" id="Layer_1" x="0px" y="0px" width="100%" viewBox="0 0 640 980" enable-background="new 0 0 640 980" xml:space="preserve">
<path fill="#363636" opacity="1.000000" stroke="none" d=" M99.000000,1.000000   C99.750000,1.000000 100.500000,1.000000 101.487946,1.451532   C101.794029,3.234091 101.918015,4.564939 101.922302,5.896172   C102.182465,86.716309 102.534088,167.536407 102.586433,248.356689   C102.595367,262.158600 102.762314,276.225037 100.297661,289.701324   C96.685173,309.453735 85.006432,325.541382 72.139351,340.619720   C70.236443,342.849640 67.614655,345.402130 67.410614,347.971008   C66.788269,355.806580 67.184784,363.723114 67.184784,371.104340   C82.692726,357.123840 98.159538,342.536255 114.333557,328.780151   C130.580276,314.962189 148.777451,304.066101 168.718353,295.782776   C170.560989,299.010498 172.121613,301.929840 173.852066,304.744781   C183.756622,320.856354 198.071411,332.013489 216.315704,335.438141   C231.755508,338.336426 247.909790,337.520935 263.111206,331.726440   C266.007263,330.622528 267.897522,330.932648 270.245911,332.912781   C293.167450,352.239929 316.080322,371.580170 339.206848,390.660706   C370.037750,416.097870 401.044189,441.322479 432.020874,466.582397   C434.274048,468.419800 436.897644,469.802917 440.014679,471.830170   C452.225769,424.378357 464.241119,377.687103 476.524994,329.952515   C512.914978,366.114624 548.666260,401.641937 584.132019,436.885590   C592.511597,425.634979 600.730408,414.600250 609.173401,403.264496   C611.416260,405.334290 613.017639,406.769257 614.571899,408.253540   C622.873169,416.181519 622.533386,416.006226 615.682068,425.024750   C610.085327,432.391815 605.248840,440.363922 600.440491,448.289368   C598.415955,451.626404 599.729553,454.003815 604.001038,454.050934   C605.498657,454.067474 606.995605,454.211731 608.491516,454.317383   C614.802429,454.763153 620.200684,456.895905 623.452026,462.726654   C626.403748,468.019928 625.978882,473.509003 624.547852,479.190796   C623.671387,482.670746 622.176514,486.904938 623.363892,489.821533   C626.724670,498.076447 625.554871,505.683655 622.857910,513.621887   C622.205811,515.541382 622.449890,518.272095 623.341980,520.117310   C626.373779,526.388367 626.702332,533.011780 624.138733,538.992065   C622.058960,543.843689 622.409607,547.556763 624.392517,552.050842   C629.353882,563.295105 622.321350,579.604736 606.625488,578.785828   C602.719910,578.582092 598.794678,578.755371 594.785095,578.755371   C594.785095,609.546631 594.738770,639.538635 594.854614,669.530029   C594.866577,672.627502 594.105286,674.806091 591.703125,676.836304   C586.616333,681.135132 582.000488,686.008057 576.791016,690.140686   C569.760254,695.718201 568.782288,702.592834 571.301575,711.033752   C578.984802,703.942078 586.481934,697.022217 594.917786,689.235901   C594.917786,707.273865 594.976990,724.030640 594.804077,740.785034   C594.790405,742.109619 593.373413,743.638672 592.252930,744.695740   C586.799622,749.840454 581.365479,755.021912 575.656616,759.875061   C569.108032,765.442017 569.248901,772.156433 571.264832,779.891113   C579.083130,772.649231 586.532410,765.749268 594.681030,758.201477   C595.382935,797.655212 594.248840,835.802856 597.408142,873.980408   C599.258850,871.372375 600.835999,868.715149 601.199280,865.901245   C602.666565,854.533691 604.698120,843.129089 604.835022,831.717957   C605.586365,769.068176 605.840149,706.412354 606.262878,643.758606   C606.274719,642.000366 606.264343,640.242004 606.264343,638.483704   C611.223694,642.887207 615.380615,647.552246 618.988159,652.609253   C629.102234,666.787231 637.925781,681.584290 639.580566,699.513550   C639.934998,703.353271 640.520813,707.171753 641.000000,711.000000   C641.000000,716.688049 641.000000,722.376038 640.618652,728.739624   C640.146851,729.901062 639.977417,730.386841 639.977173,730.872803   C639.962341,756.249207 639.950012,781.625671 640.003845,807.001953   C640.005920,808.002014 640.653259,809.000671 641.000000,810.000000   C641.000000,817.354248 641.000000,824.708496 640.607971,832.724854   C639.829407,841.018860 639.549133,848.657837 639.039246,856.281433   C635.570801,908.140747 610.809265,946.163208 564.674622,970.113037   C556.974365,974.110535 548.900940,977.389160 541.000000,981.000000   C540.555542,981.000000 540.111084,981.000000 539.355957,980.531738   C539.384888,883.916687 539.719788,787.769775 540.103577,691.623108   C540.109985,690.022217 540.427002,688.294861 541.081055,686.843872   C548.983032,669.313965 558.539429,652.838074 571.851074,638.748901   C573.167053,637.356018 574.662415,635.419617 574.730347,633.682922   C575.038757,625.794617 574.865479,617.887451 574.865479,609.297485   C544.460693,639.581360 513.616638,668.630310 473.975800,685.450317   C473.360596,685.101685 473.153290,685.056335 473.079834,684.931946   C471.477417,682.218018 469.947418,679.459839 468.290100,676.780212   C458.152863,660.390259 443.646820,649.154968 424.886017,645.849609   C409.710144,643.175964 393.953064,643.940186 379.042480,649.403015   C375.830414,650.579895 373.793732,650.137451 371.171539,647.949951   C322.315338,607.192139 273.391388,566.515320 224.392685,525.928894   C217.509506,520.227478 210.159637,515.089417 202.095245,508.986328   C189.775421,556.918457 177.753937,603.689941 165.490829,651.401428   C129.292160,615.444824 93.425125,579.817627 57.909897,544.539856   C49.563557,555.748169 41.331848,566.802490 32.873909,578.160645   C29.980995,575.420166 27.626797,573.322083 25.422791,571.076599   C19.565536,565.109009 19.867868,565.045227 24.745432,558.408752   C30.237738,550.935852 35.242119,543.094604 40.230347,535.268005   C41.470936,533.321533 41.831795,530.814392 42.836189,527.861877   C38.771725,527.517151 35.666180,527.211609 32.554317,526.997986   C23.785044,526.395996 17.117516,520.821838 16.463266,512.166016   C16.126780,507.714233 17.921053,503.117584 18.614967,498.565460   C19.001978,496.026703 20.156761,492.897064 19.155390,490.978516   C15.076221,483.163300 15.790511,475.714325 18.950560,467.923187   C19.699650,466.076294 19.695118,463.285034 18.822100,461.533997   C15.716216,455.304535 14.986927,448.582092 17.733007,442.704041   C20.198023,437.427673 19.309418,433.539185 17.423370,428.704926   C12.494236,416.070618 21.873228,401.193909 35.129154,402.764496   C39.022266,403.225769 43.016277,402.835449 47.280746,402.835449   C47.280746,400.340363 47.280750,398.522919 47.280750,396.705475   C47.280754,368.377228 47.332478,340.048798 47.207825,311.721100   C47.194012,308.582397 48.102119,306.527069 50.500526,304.507507   C55.849285,300.003632 60.725914,294.934204 66.121925,290.492493   C72.804924,284.991455 72.776474,278.253815 70.823921,270.225555   C62.970013,277.597046 55.539371,284.571289 47.105797,292.486847   C47.105797,274.435852 47.039059,257.834778 47.219311,241.236374   C47.235558,239.740204 48.570457,237.975571 49.764210,236.824158   C54.798717,231.968170 59.782112,227.012451 65.217209,222.630249   C72.196800,217.002792 73.263184,210.115356 70.792458,201.565002   C63.127708,208.630615 55.656712,215.517639 47.380238,223.147171   C46.606964,183.736786 47.778103,145.526169 44.538742,107.332741   C42.390751,110.980591 40.566269,114.641937 40.091835,118.470573   C38.762970,129.194412 37.238739,139.979370 37.124588,150.754333   C36.462620,213.235916 36.184273,275.721558 35.777836,338.205841   C35.767517,339.792236 35.776535,341.378754 35.776535,342.965210   C30.752575,338.438110 26.512138,333.619995 22.803265,328.422607   C12.682054,314.239258 3.976904,299.390106 2.388708,281.456573   C2.108119,278.288208 1.471959,275.151398 1.000000,272.000000   C1.000000,266.311951 1.000000,260.623901 1.388081,254.269516   C1.863087,253.116089 2.025725,252.629089 2.026093,252.141937   C2.046294,225.415741 2.064252,198.689529 2.016097,171.963409   C2.014316,170.975006 1.353625,169.987778 1.000000,169.000000   C1.000000,163.311966 1.000000,157.623917 1.388742,151.268753   C2.699768,137.015808 2.567506,123.259064 4.736859,109.875381   C12.010143,65.003319 37.061157,32.554352 76.614594,11.003817   C83.769310,7.105598 91.522896,4.306518 99.000000,1.000000  M28.144358,421.584076   C28.012903,425.744904 30.409908,427.783997 34.189140,428.044861   C42.639839,428.628082 51.106777,429.252258 59.570663,429.306854   C74.207321,429.401276 88.849792,429.206299 103.483299,428.858215   C108.896782,428.729462 111.502251,426.125732 111.593819,421.944397   C111.685219,417.770691 109.074989,415.264709 103.719666,414.896362   C97.750656,414.485748 91.758484,414.128937 85.780540,414.185699   C69.649162,414.338745 53.516777,414.615875 37.392273,415.095276   C33.500294,415.211029 29.113358,415.466003 28.144358,421.584076  M538.293701,552.558838   C531.224609,553.665222 527.795654,559.804016 532.218994,564.139404   C534.151672,566.033691 537.920715,566.755859 540.870850,566.792480   C555.694641,566.976074 570.525269,566.869507 585.349670,566.631165   C592.501831,566.516174 599.650818,565.959229 606.791260,565.460449   C610.389526,565.209106 613.645203,563.786133 613.698242,559.687012   C613.755371,555.279907 610.436279,553.815308 606.566956,553.734558   C584.098999,553.265564 561.629700,552.862122 538.293701,552.558838  M586.481689,509.881470   C591.969849,509.628754 597.462463,509.448975 602.945129,509.107727   C613.772766,508.433807 615.449280,505.892365 612.025269,495.554382   C611.925842,495.254303 611.676636,495.003845 611.695618,495.032745   C589.509277,495.032745 567.525269,494.934662 545.543030,495.091492   C538.788330,495.139679 536.696472,497.120728 536.766907,501.996429   C536.837646,506.899841 539.122131,508.818787 545.526611,508.988373   C558.845276,509.341064 572.166809,509.589966 586.481689,509.881470  M86.098183,457.351807   C92.066528,456.889771 98.114655,456.842224 103.955559,455.718018   C105.752457,455.372192 108.034561,452.140289 108.142197,450.125641   C108.229195,448.497070 105.682724,446.101166 103.759171,445.159851   C101.636154,444.120941 98.896980,444.127930 96.416656,444.067017   C80.428413,443.674103 64.438576,443.286346 48.446968,443.127136   C43.637112,443.079254 38.783295,443.506989 34.016472,444.186096   C29.258282,444.863983 26.471220,449.023010 28.659401,452.739807   C29.900305,454.847595 33.267746,456.838745 35.732311,456.907166   C52.198856,457.364532 68.680183,457.289764 86.098183,457.351807  M76.498627,486.883331   C83.984245,486.599731 91.485031,486.520203 98.950493,485.965302   C104.523499,485.551056 107.283997,480.592804 104.310410,476.030457   C103.124794,474.211304 100.062401,472.672272 97.823853,472.630219   C78.181267,472.261292 58.525024,471.908081 38.887005,472.286285   C27.853954,472.498810 26.260447,475.930634 30.611134,486.884644   C45.530258,486.884644 60.514610,486.884644 76.498627,486.883331  M586.497803,523.955444   C578.509460,523.789917 570.516357,523.374451 562.534180,523.528381   C554.405701,523.685242 546.277649,524.274109 538.170776,524.935913   C534.807495,525.210388 533.461853,527.714539 533.414246,530.928772   C533.365540,534.219971 534.943909,536.263428 538.170288,536.976379   C539.469910,537.263550 540.787720,537.709595 542.092896,537.695068   C563.718445,537.455078 585.344849,537.228210 606.966797,536.789978   C610.493958,536.718506 613.719299,534.948181 613.692566,530.832153   C613.666016,526.745056 610.604980,525.227356 606.930664,524.997192   C600.455994,524.591736 593.974243,524.298645 586.497803,523.955444  M578.500000,481.083862   C586.645508,480.810730 594.816772,480.852051 602.930054,480.186035   C613.430054,479.324036 614.416748,477.741760 612.580505,466.600861   C588.940613,466.600861 565.183594,466.600861 541.251892,466.600861   C537.522095,476.429016 539.028564,479.358978 549.575439,480.149597   C558.854858,480.845184 568.189636,480.801239 578.500000,481.083862  M87.635605,500.879578   C79.977089,500.647675 72.312462,500.107635 64.661552,500.259369   C54.360123,500.463593 44.059059,501.056702 33.779099,501.783539   C29.887993,502.058655 28.113972,504.542419 28.342205,508.684723   C28.569963,512.818359 30.742506,514.148499 34.450947,514.190430   C54.097691,514.412598 73.743904,514.684143 93.390884,514.879578   C94.866943,514.894287 96.769958,514.941467 97.737038,514.112854   C99.674545,512.452820 102.381874,510.198944 102.385513,508.185913   C102.389282,506.094604 99.989594,503.094788 97.888649,502.129272   C95.171028,500.880310 91.707970,501.253387 87.635605,500.879578  M257.118561,420.116760   C250.027206,420.286316 243.997498,425.406067 242.850494,432.231659   C241.852951,438.167847 251.312363,447.653778 257.133392,446.554596   C261.902863,445.653992 268.274292,439.067352 269.077972,434.206543   C269.822845,429.701447 266.415009,424.197662 261.146332,421.503418   C260.120392,420.978821 258.989929,420.658600 257.118561,420.116760  M388.474640,560.967163   C391.197174,558.848755 394.225494,557.018860 396.564941,554.539001   C399.505768,551.421753 400.549438,547.549072 397.855316,543.624817   C394.709045,539.041931 391.228577,534.515076 384.889771,535.017090   C378.706146,535.506836 372.366791,543.140564 372.834106,548.886536   C373.399139,555.833191 380.474792,561.638733 388.474640,560.967163  M319.208130,477.700043   C313.391571,480.108063 308.442352,483.897217 307.959503,490.365692   C307.525238,496.183044 312.252167,499.694305 316.787292,502.656036   C321.089264,505.465546 324.774109,503.596313 327.996155,500.690247   C331.567444,497.469116 335.345367,494.046844 333.844757,488.461273   C332.371613,482.977783 325.869202,478.037201 319.208130,477.700043  z"/>
<path fill="transparent" opacity="1.000000" stroke="none" d=" M1.000000,272.468658   C1.471959,275.151398 2.108119,278.288208 2.388708,281.456573   C3.976904,299.390106 12.682054,314.239258 22.803265,328.422607   C26.512138,333.619995 30.752575,338.438110 35.776535,342.965210   C35.776535,341.378754 35.767517,339.792236 35.777836,338.205841   C36.184273,275.721558 36.462620,213.235916 37.124588,150.754333   C37.238739,139.979370 38.762970,129.194412 40.091835,118.470573   C40.566269,114.641937 42.390751,110.980591 44.538742,107.332741   C47.778103,145.526169 46.606964,183.736786 47.380238,223.147171   C55.656712,215.517639 63.127708,208.630615 70.792458,201.565002   C73.263184,210.115356 72.196800,217.002792 65.217209,222.630249   C59.782112,227.012451 54.798717,231.968170 49.764210,236.824158   C48.570457,237.975571 47.235558,239.740204 47.219311,241.236374   C47.039059,257.834778 47.105797,274.435852 47.105797,292.486847   C55.539371,284.571289 62.970013,277.597046 70.823921,270.225555   C72.776474,278.253815 72.804924,284.991455 66.121925,290.492493   C60.725914,294.934204 55.849285,300.003632 50.500526,304.507507   C48.102119,306.527069 47.194012,308.582397 47.207825,311.721100   C47.332478,340.048798 47.280754,368.377228 47.280750,396.705475   C47.280750,398.522919 47.280746,400.340363 47.280746,402.835449   C43.016277,402.835449 39.022266,403.225769 35.129154,402.764496   C21.873228,401.193909 12.494236,416.070618 17.423370,428.704926   C19.309418,433.539185 20.198023,437.427673 17.733007,442.704041   C14.986927,448.582092 15.716216,455.304535 18.822100,461.533997   C19.695118,463.285034 19.699650,466.076294 18.950560,467.923187   C15.790511,475.714325 15.076221,483.163300 19.155390,490.978516   C20.156761,492.897064 19.001978,496.026703 18.614967,498.565460   C17.921053,503.117584 16.126780,507.714233 16.463266,512.166016   C17.117516,520.821838 23.785044,526.395996 32.554317,526.997986   C35.666180,527.211609 38.771725,527.517151 42.836189,527.861877   C41.831795,530.814392 41.470936,533.321533 40.230347,535.268005   C35.242119,543.094604 30.237738,550.935852 24.745432,558.408752   C19.867868,565.045227 19.565536,565.109009 25.422791,571.076599   C27.626797,573.322083 29.980995,575.420166 32.873909,578.160645   C41.331848,566.802490 49.563557,555.748169 57.909897,544.539856   C93.425125,579.817627 129.292160,615.444824 165.490829,651.401428   C177.753937,603.689941 189.775421,556.918457 202.095245,508.986328   C210.159637,515.089417 217.509506,520.227478 224.392685,525.928894   C273.391388,566.515320 322.315338,607.192139 371.171539,647.949951   C373.793732,650.137451 375.830414,650.579895 379.042480,649.403015   C393.953064,643.940186 409.710144,643.175964 424.886017,645.849609   C443.646820,649.154968 458.152863,660.390259 468.290100,676.780212   C469.947418,679.459839 471.477417,682.218018 473.079834,684.931946   C473.153290,685.056335 473.360596,685.101685 473.975800,685.450317   C513.616638,668.630310 544.460693,639.581360 574.865479,609.297485   C574.865479,617.887451 575.038757,625.794617 574.730347,633.682922   C574.662415,635.419617 573.167053,637.356018 571.851074,638.748901   C558.539429,652.838074 548.983032,669.313965 541.081055,686.843872   C540.427002,688.294861 540.109985,690.022217 540.103577,691.623108   C539.719788,787.769775 539.384888,883.916687 539.022705,980.531738   C359.729553,981.000000 180.459076,981.000000 1.000000,981.000000   C1.000000,744.979126 1.000000,508.958221 1.000000,272.468658  M185.899109,773.427307   C200.726685,769.885742 214.745255,764.380554 227.525742,755.987122   C236.145966,750.325745 244.393738,744.047241 253.287949,738.869019   C260.532410,734.651306 268.475433,731.627014 276.141968,728.146729   C277.521851,727.520264 279.063202,727.249451 280.994995,726.676514   C265.897247,720.391113 250.892303,717.982849 235.447372,721.145874   C226.027893,723.074829 216.854095,726.176147 207.511520,728.517822   C201.342911,730.063904 195.070480,731.195862 188.589554,732.567139   C189.583817,718.063110 190.501465,704.676819 191.435776,691.047180   C220.674988,692.506714 249.971008,691.763672 278.924988,698.280457   C273.750305,694.538574 268.407501,691.394165 262.714813,689.129211   C236.755249,678.801147 209.322678,678.961670 182.034363,678.244629   C177.953033,678.137329 177.421631,680.784607 177.196808,684.155823   C175.589844,708.252808 173.680450,732.330811 172.257492,756.437866   C171.978012,761.173157 169.958755,762.383789 165.870087,763.157593   C156.986557,764.838745 148.200272,767.033630 139.180298,769.062134   C139.858292,771.054749 140.271729,772.314453 140.714218,773.563904   C151.858414,805.030945 163.066971,836.475586 174.035431,868.003723   C174.908813,870.514282 174.891632,873.876648 173.992371,876.377136   C165.789230,899.187744 157.378448,921.925110 148.821014,944.605591   C147.204224,948.890686 147.886093,951.144897 152.527359,952.027893   C169.502472,955.257507 186.332611,960.144714 203.452301,961.554199   C259.237183,966.146973 314.623566,962.138062 369.233948,949.652161   C381.318054,946.889221 392.987305,942.272461 404.789215,938.334473   C409.247986,936.846741 410.649750,934.347229 408.603210,929.243530   C401.930389,912.602722 395.975861,895.675171 389.558289,878.929565   C388.223267,875.446106 388.210968,872.362793 389.539062,868.914429   C397.954498,847.063721 406.245728,825.165161 414.576447,803.281799   C418.460724,793.078491 422.341675,782.873779 426.333344,772.382751   C415.969055,771.533997 406.621582,769.495544 397.915375,761.700378   C402.174896,761.950989 405.080505,762.145569 407.988586,762.289307   C432.225159,763.488037 452.252686,751.910767 460.587006,731.902283   C464.470978,722.577881 465.017059,712.883362 463.996033,702.964294   C461.780762,681.442871 445.074738,661.568848 424.812012,658.313538   C405.675720,655.239258 387.020477,657.343567 369.893921,667.692505   C351.423889,678.853210 339.233673,695.488037 329.014252,713.869385   C316.687775,736.040405 308.442535,759.914612 299.991486,783.713623   C292.975769,803.470642 285.632904,823.184998 272.228882,839.719788   C260.937286,853.648621 247.081451,864.298950 228.712219,866.452332   C216.669662,867.864136 204.425766,867.670471 192.267365,867.821960   C190.936646,867.838623 188.913635,865.626648 188.328842,864.037231   C181.504196,845.490295 174.820694,826.890259 168.258072,808.248535   C165.026413,799.068726 162.123245,789.773376 158.861023,779.893066   C168.043976,777.731384 176.584259,775.720947 185.899109,773.427307  M316.901245,627.596985   C282.522583,598.778137 248.143936,569.959351 212.447754,540.036011   C201.409286,580.091797 192.241287,618.864868 183.372421,657.541443   C208.295990,661.067505 232.556335,663.971252 256.617218,668.051331   C281.018524,672.189148 303.766510,681.505981 325.227234,693.167908   C335.263275,681.963501 344.980133,671.115417 355.035675,659.889160   C342.046844,648.888184 329.746948,638.470642 316.901245,627.596985  M229.354767,836.012756   C231.291443,834.608154 233.228119,833.203552 235.221817,831.757568   C225.957962,821.628601 214.644806,821.534912 206.283295,831.397949   C212.198257,838.645264 219.855957,840.327393 229.354767,836.012756  z"/>
<path fill="transparent" opacity="1.000000" stroke="none" d=" M641.000000,710.531372   C640.520813,707.171753 639.934998,703.353271 639.580566,699.513550   C637.925781,681.584290 629.102234,666.787231 618.988159,652.609253   C615.380615,647.552246 611.223694,642.887207 606.264343,638.483704   C606.264343,640.242004 606.274719,642.000366 606.262878,643.758606   C605.840149,706.412354 605.586365,769.068176 604.835022,831.717957   C604.698120,843.129089 602.666565,854.533691 601.199280,865.901245   C600.835999,868.715149 599.258850,871.372375 597.408142,873.980408   C594.248840,835.802856 595.382935,797.655212 594.681030,758.201477   C586.532410,765.749268 579.083130,772.649231 571.264832,779.891113   C569.248901,772.156433 569.108032,765.442017 575.656616,759.875061   C581.365479,755.021912 586.799622,749.840454 592.252930,744.695740   C593.373413,743.638672 594.790405,742.109619 594.804077,740.785034   C594.976990,724.030640 594.917786,707.273865 594.917786,689.235901   C586.481934,697.022217 578.984802,703.942078 571.301575,711.033752   C568.782288,702.592834 569.760254,695.718201 576.791016,690.140686   C582.000488,686.008057 586.616333,681.135132 591.703125,676.836304   C594.105286,674.806091 594.866577,672.627502 594.854614,669.530029   C594.738770,639.538635 594.785095,609.546631 594.785095,578.755371   C598.794678,578.755371 602.719910,578.582092 606.625488,578.785828   C622.321350,579.604736 629.353882,563.295105 624.392517,552.050842   C622.409607,547.556763 622.058960,543.843689 624.138733,538.992065   C626.702332,533.011780 626.373779,526.388367 623.341980,520.117310   C622.449890,518.272095 622.205811,515.541382 622.857910,513.621887   C625.554871,505.683655 626.724670,498.076447 623.363892,489.821533   C622.176514,486.904938 623.671387,482.670746 624.547852,479.190796   C625.978882,473.509003 626.403748,468.019928 623.452026,462.726654   C620.200684,456.895905 614.802429,454.763153 608.491516,454.317383   C606.995605,454.211731 605.498657,454.067474 604.001038,454.050934   C599.729553,454.003815 598.415955,451.626404 600.440491,448.289368   C605.248840,440.363922 610.085327,432.391815 615.682068,425.024750   C622.533386,416.006226 622.873169,416.181519 614.571899,408.253540   C613.017639,406.769257 611.416260,405.334290 609.173401,403.264496   C600.730408,414.600250 592.511597,425.634979 584.132019,436.885590   C548.666260,401.641937 512.914978,366.114624 476.524994,329.952515   C464.241119,377.687103 452.225769,424.378357 440.014679,471.830170   C436.897644,469.802917 434.274048,468.419800 432.020874,466.582397   C401.044189,441.322479 370.037750,416.097870 339.206848,390.660706   C316.080322,371.580170 293.167450,352.239929 270.245911,332.912781   C267.897522,330.932648 266.007263,330.622528 263.111206,331.726440   C247.909790,337.520935 231.755508,338.336426 216.315704,335.438141   C198.071411,332.013489 183.756622,320.856354 173.852066,304.744781   C172.121613,301.929840 170.560989,299.010498 168.718353,295.782776   C148.777451,304.066101 130.580276,314.962189 114.333557,328.780151   C98.159538,342.536255 82.692726,357.123840 67.184784,371.104340   C67.184784,363.723114 66.788269,355.806580 67.410614,347.971008   C67.614655,345.402130 70.236443,342.849640 72.139351,340.619720   C85.006432,325.541382 96.685173,309.453735 100.297661,289.701324   C102.762314,276.225037 102.595367,262.158600 102.586433,248.356689   C102.534088,167.536407 102.182465,86.716309 101.922302,5.896172   C101.918015,4.564939 101.794029,3.234091 101.862946,1.451532   C281.603729,1.000000 461.207489,1.000000 641.000000,1.000000   C641.000000,237.354187 641.000000,473.708435 641.000000,710.531372  M380.581512,292.988495   C407.594360,303.326752 436.046448,301.816498 463.918365,303.781433   C465.601868,279.714111 467.204010,256.299316 468.891144,232.890625   C469.831543,219.842941 469.901306,219.874619 482.959717,216.932312   C489.528046,215.452362 496.069519,213.853302 502.880096,212.247513   C490.978058,178.765778 479.304108,146.092407 467.845764,113.343582   C467.019135,110.981087 467.047882,107.813469 467.889526,105.451584   C476.138519,82.303093 484.550842,59.211132 493.160126,36.194157   C494.800842,31.807726 493.262482,30.224310 489.358582,29.170586   C470.679871,24.128862 451.785828,20.124308 432.429779,19.245989   C384.726501,17.081354 337.180023,17.873293 290.204010,27.969645   C271.999451,31.882271 253.777969,35.647518 236.573181,43.096779   C232.507462,44.857136 231.294373,47.053017 233.088409,51.588558   C239.805878,68.571205 246.252075,85.666496 252.417953,102.856598   C253.424255,105.662148 253.360092,109.471840 252.333588,112.285912   C245.562119,130.849228 238.396515,149.268814 231.350204,167.731766   C226.159119,181.333588 220.954102,194.930084 215.619324,208.884628   C226.018402,210.004990 235.565491,211.940063 242.910919,219.305801   C241.081085,219.649124 239.441467,219.438492 237.797531,219.269897   C213.451462,216.773010 191.972000,227.578537 182.578354,246.968124   C177.769424,256.894318 176.928970,267.335419 177.969727,278.142761   C180.147583,300.758362 197.781204,320.804657 219.842422,323.519012   C244.708572,326.578491 267.490143,320.968872 286.345734,303.294891   C300.051422,290.448090 310.314392,275.023132 317.694275,258.020721   C327.468903,235.500900 335.985291,212.432358 344.928375,189.555038   C352.150055,171.081253 359.438324,152.560547 373.176758,137.778244   C386.258057,123.703056 401.736206,114.007088 421.979095,114.236755   C430.967987,114.338737 439.964630,113.581398 448.959137,113.543533   C450.378632,113.537552 452.635773,114.978622 453.106628,116.263359   C462.992859,143.237808 472.635925,170.301270 482.459229,197.299026   C483.580994,200.381989 482.566193,201.661530 479.790253,202.335480   C476.076843,203.237015 472.364960,204.145416 468.645294,205.020554   C448.031342,209.870514 427.731964,215.487518 410.095581,227.970749   C403.307129,232.775650 396.623352,237.816345 389.423218,241.929123   C380.679413,246.923676 371.440247,251.051056 361.796204,255.862503   C369.489502,257.608856 376.964447,259.803009 384.596985,260.930573   C398.770721,263.024506 412.300110,259.553802 425.769165,255.391815   C434.679108,252.638657 443.878143,250.821152 453.306091,248.496399   C452.335510,263.004211 451.450439,276.233368 450.603271,288.896271   C436.134735,288.896271 421.635590,289.678772 407.260803,288.677063   C392.772919,287.667480 378.408539,284.885956 363.544678,282.818878   C367.680176,288.494324 374.156250,290.010834 380.581512,292.988495  M306.065399,300.545532   C299.640533,307.372009 293.215637,314.198486 286.617767,321.208710   C334.405243,360.661102 380.269379,401.695740 430.404022,440.073212   C440.186066,400.218475 449.582581,361.934418 459.250732,322.543762   C408.560028,319.493042 359.946228,313.033447 316.346008,287.282288   C312.616852,292.111908 309.570038,296.057861 306.065399,300.545532  M419.224670,142.858002   C414.538208,144.303314 409.932220,145.873810 406.897705,150.119095   C416.645691,159.757477 427.107819,160.151810 435.838043,149.539139   C431.263824,145.548264 426.367249,142.464218 419.224670,142.858002  z"/>
<path fill="transparent" opacity="1.000000" stroke="none" d=" M541.468628,981.000000   C548.900940,977.389160 556.974365,974.110535 564.674622,970.113037   C610.809265,946.163208 635.570801,908.140747 639.039246,856.281433   C639.549133,848.657837 639.829407,841.018860 640.607971,833.193481   C641.000000,882.246155 641.000000,931.492371 641.000000,981.000000   C607.979553,981.000000 574.958435,981.000000 541.468628,981.000000  z"/>
<path fill="transparent" opacity="1.000000" stroke="none" d=" M98.531342,1.000000   C91.522896,4.306518 83.769310,7.105598 76.614594,11.003817   C37.061157,32.554352 12.010143,65.003319 4.736859,109.875381   C2.567506,123.259064 2.699768,137.015808 1.388742,150.800812   C1.000000,101.088348 1.000000,51.176693 1.000000,1.000000   C33.353745,1.000000 65.708214,1.000000 98.531342,1.000000  z"/>
<path fill="#4f4f4f" opacity="1.000000" stroke="none" d=" M1.000000,169.468658   C1.353625,169.987778 2.014316,170.975006 2.016097,171.963409   C2.064252,198.689529 2.046294,225.415741 2.026093,252.141937   C2.025725,252.629089 1.863087,253.116089 1.388081,253.801575   C1.000000,225.979111 1.000000,197.958206 1.000000,169.468658  z"/>
<path fill="#FA6900" opacity="1.000000" stroke="none" d=" M641.000000,809.531372   C640.653259,809.000671 640.005920,808.002014 640.003845,807.001953   C639.950012,781.625671 639.962341,756.249207 639.977173,730.872803   C639.977417,730.386841 640.146851,729.901062 640.618652,729.207581   C641.000000,755.687561 641.000000,782.375122 641.000000,809.531372  z"/>
<path fill="#E0E4CC" opacity="1.000000" stroke="none" d=" M28.161953,421.190491   C29.113358,415.466003 33.500294,415.211029 37.392273,415.095276   C53.516777,414.615875 69.649162,414.338745 85.780540,414.185699   C91.758484,414.128937 97.750656,414.485748 103.719666,414.896362   C109.074989,415.264709 111.685219,417.770691 111.593819,421.944397   C111.502251,426.125732 108.896782,428.729462 103.483299,428.858215   C88.849792,429.206299 74.207321,429.401276 59.570663,429.306854   C51.106777,429.252258 42.639839,428.628082 34.189140,428.044861   C30.409908,427.783997 28.012903,425.744904 28.161953,421.190491  z"/>
<path fill="#E0E4CC" opacity="1.000000" stroke="none" d=" M538.727295,552.497681   C561.629700,552.862122 584.098999,553.265564 606.566956,553.734558   C610.436279,553.815308 613.755371,555.279907 613.698242,559.687012   C613.645203,563.786133 610.389526,565.209106 606.791260,565.460449   C599.650818,565.959229 592.501831,566.516174 585.349670,566.631165   C570.525269,566.869507 555.694641,566.976074 540.870850,566.792480   C537.920715,566.755859 534.151672,566.033691 532.218994,564.139404   C527.795654,559.804016 531.224609,553.665222 538.727295,552.497681  z"/>
<path fill="#E0E4CC" opacity="1.000000" stroke="none" d=" M585.984375,509.881470   C572.166809,509.589966 558.845276,509.341064 545.526611,508.988373   C539.122131,508.818787 536.837646,506.899841 536.766907,501.996429   C536.696472,497.120728 538.788330,495.139679 545.543030,495.091492   C567.525269,494.934662 589.509277,495.032745 611.695618,495.032745   C611.676636,495.003845 611.925842,495.254303 612.025269,495.554382   C615.449280,505.892365 613.772766,508.433807 602.945129,509.107727   C597.462463,509.448975 591.969849,509.628754 585.984375,509.881470  z"/>
<path fill="#E0E4CC" opacity="1.000000" stroke="none" d=" M85.627449,457.369751   C68.680183,457.289764 52.198856,457.364532 35.732311,456.907166   C33.267746,456.838745 29.900305,454.847595 28.659401,452.739807   C26.471220,449.023010 29.258282,444.863983 34.016472,444.186096   C38.783295,443.506989 43.637112,443.079254 48.446968,443.127136   C64.438576,443.286346 80.428413,443.674103 96.416656,444.067017   C98.896980,444.127930 101.636154,444.120941 103.759171,445.159851   C105.682724,446.101166 108.229195,448.497070 108.142197,450.125641   C108.034561,452.140289 105.752457,455.372192 103.955559,455.718018   C98.114655,456.842224 92.066528,456.889771 85.627449,457.369751  z"/>
<path fill="#E0E4CC" opacity="1.000000" stroke="none" d=" M75.998795,486.883972   C60.514610,486.884644 45.530258,486.884644 30.611134,486.884644   C26.260447,475.930634 27.853954,472.498810 38.887005,472.286285   C58.525024,471.908081 78.181267,472.261292 97.823853,472.630219   C100.062401,472.672272 103.124794,474.211304 104.310410,476.030457   C107.283997,480.592804 104.523499,485.551056 98.950493,485.965302   C91.485031,486.520203 83.984245,486.599731 75.998795,486.883972  z"/>
<path fill="#E0E4CC" opacity="1.000000" stroke="none" d=" M586.996643,523.956970   C593.974243,524.298645 600.455994,524.591736 606.930664,524.997192   C610.604980,525.227356 613.666016,526.745056 613.692566,530.832153   C613.719299,534.948181 610.493958,536.718506 606.966797,536.789978   C585.344849,537.228210 563.718445,537.455078 542.092896,537.695068   C540.787720,537.709595 539.469910,537.263550 538.170288,536.976379   C534.943909,536.263428 533.365540,534.219971 533.414246,530.928772   C533.461853,527.714539 534.807495,525.210388 538.170776,524.935913   C546.277649,524.274109 554.405701,523.685242 562.534180,523.528381   C570.516357,523.374451 578.509460,523.789917 586.996643,523.956970  z"/>
<path fill="#E0E4CC" opacity="1.000000" stroke="none" d=" M578.000000,481.083862   C568.189636,480.801239 558.854858,480.845184 549.575439,480.149597   C539.028564,479.358978 537.522095,476.429016 541.251892,466.600861   C565.183594,466.600861 588.940613,466.600861 612.580505,466.600861   C614.416748,477.741760 613.430054,479.324036 602.930054,480.186035   C594.816772,480.852051 586.645508,480.810730 578.000000,481.083862  z"/>
<path fill="#E0E4CC" opacity="1.000000" stroke="none" d=" M88.100739,500.903839   C91.707970,501.253387 95.171028,500.880310 97.888649,502.129272   C99.989594,503.094788 102.389282,506.094604 102.385513,508.185913   C102.381874,510.198944 99.674545,512.452820 97.737038,514.112854   C96.769958,514.941467 94.866943,514.894287 93.390884,514.879578   C73.743904,514.684143 54.097691,514.412598 34.450947,514.190430   C30.742506,514.148499 28.569963,512.818359 28.342205,508.684723   C28.113972,504.542419 29.887993,502.058655 33.779099,501.783539   C44.059059,501.056702 54.360123,500.463593 64.661552,500.259369   C72.312462,500.107635 79.977089,500.647675 88.100739,500.903839  z"/>
<path fill="#E0E4CC" opacity="1.000000" stroke="none" d=" M257.513123,420.180420   C258.989929,420.658600 260.120392,420.978821 261.146332,421.503418   C266.415009,424.197662 269.822845,429.701447 269.077972,434.206543   C268.274292,439.067352 261.902863,445.653992 257.133392,446.554596   C251.312363,447.653778 241.852951,438.167847 242.850494,432.231659   C243.997498,425.406067 250.027206,420.286316 257.513123,420.180420  z"/>
<path fill="#E0E4CC" opacity="1.000000" stroke="none" d=" M388.117249,561.050171   C380.474792,561.638733 373.399139,555.833191 372.834106,548.886536   C372.366791,543.140564 378.706146,535.506836 384.889771,535.017090   C391.228577,534.515076 394.709045,539.041931 397.855316,543.624817   C400.549438,547.549072 399.505768,551.421753 396.564941,554.539001   C394.225494,557.018860 391.197174,558.848755 388.117249,561.050171  z"/>
<path fill="#E0E4CC" opacity="1.000000" stroke="none" d=" M319.557190,477.573792   C325.869202,478.037201 332.371613,482.977783 333.844757,488.461273   C335.345367,494.046844 331.567444,497.469116 327.996155,500.690247   C324.774109,503.596313 321.089264,505.465546 316.787292,502.656036   C312.252167,499.694305 307.525238,496.183044 307.959503,490.365692   C308.442352,483.897217 313.391571,480.108063 319.557190,477.573792  z"/>
<path fill="#363636" opacity="1.000000" stroke="none" d=" M185.511841,773.568970   C176.584259,775.720947 168.043976,777.731384 158.861023,779.893066   C162.123245,789.773376 165.026413,799.068726 168.258072,808.248535   C174.820694,826.890259 181.504196,845.490295 188.328842,864.037231   C188.913635,865.626648 190.936646,867.838623 192.267365,867.821960   C204.425766,867.670471 216.669662,867.864136 228.712219,866.452332   C247.081451,864.298950 260.937286,853.648621 272.228882,839.719788   C285.632904,823.184998 292.975769,803.470642 299.991486,783.713623   C308.442535,759.914612 316.687775,736.040405 329.014252,713.869385   C339.233673,695.488037 351.423889,678.853210 369.893921,667.692505   C387.020477,657.343567 405.675720,655.239258 424.812012,658.313538   C445.074738,661.568848 461.780762,681.442871 463.996033,702.964294   C465.017059,712.883362 464.470978,722.577881 460.587006,731.902283   C452.252686,751.910767 432.225159,763.488037 407.988586,762.289307   C405.080505,762.145569 402.174896,761.950989 397.915375,761.700378   C406.621582,769.495544 415.969055,771.533997 426.333344,772.382751   C422.341675,782.873779 418.460724,793.078491 414.576447,803.281799   C406.245728,825.165161 397.954498,847.063721 389.539062,868.914429   C388.210968,872.362793 388.223267,875.446106 389.558289,878.929565   C395.975861,895.675171 401.930389,912.602722 408.603210,929.243530   C410.649750,934.347229 409.247986,936.846741 404.789215,938.334473   C392.987305,942.272461 381.318054,946.889221 369.233948,949.652161   C314.623566,962.138062 259.237183,966.146973 203.452301,961.554199   C186.332611,960.144714 169.502472,955.257507 152.527359,952.027893   C147.886093,951.144897 147.204224,948.890686 148.821014,944.605591   C157.378448,921.925110 165.789230,899.187744 173.992371,876.377136   C174.891632,873.876648 174.908813,870.514282 174.035431,868.003723   C163.066971,836.475586 151.858414,805.030945 140.714218,773.563904   C140.271729,772.314453 139.858292,771.054749 139.180298,769.062134   C148.200272,767.033630 156.986557,764.838745 165.870087,763.157593   C169.958755,762.383789 171.978012,761.173157 172.257492,756.437866   C173.680450,732.330811 175.589844,708.252808 177.196808,684.155823   C177.421631,680.784607 177.953033,678.137329 182.034363,678.244629   C209.322678,678.961670 236.755249,678.801147 262.714813,689.129211   C268.407501,691.394165 273.750305,694.538574 278.924988,698.280457   C249.971008,691.763672 220.674988,692.506714 191.435776,691.047180   C190.501465,704.676819 189.583817,718.063110 188.589554,732.567139   C195.070480,731.195862 201.342911,730.063904 207.511520,728.517822   C216.854095,726.176147 226.027893,723.074829 235.447372,721.145874   C250.892303,717.982849 265.897247,720.391113 280.994995,726.676514   C279.063202,727.249451 277.521851,727.520264 276.141968,728.146729   C268.475433,731.627014 260.532410,734.651306 253.287949,738.869019   C244.393738,744.047241 236.145966,750.325745 227.525742,755.987122   C214.745255,764.380554 200.726685,769.885742 185.511841,773.568970  z"/>
<path fill="#363636" opacity="1.000000" stroke="none" d=" M317.174133,627.825073   C329.746948,638.470642 342.046844,648.888184 355.035675,659.889160   C344.980133,671.115417 335.263275,681.963501 325.227234,693.167908   C303.766510,681.505981 281.018524,672.189148 256.617218,668.051331   C232.556335,663.971252 208.295990,661.067505 183.372421,657.541443   C192.241287,618.864868 201.409286,580.091797 212.447754,540.036011   C248.143936,569.959351 282.522583,598.778137 317.174133,627.825073  z"/>
<path fill="#808080" opacity="1.000000" stroke="none" d=" M229.013336,836.164429   C219.855957,840.327393 212.198257,838.645264 206.283295,831.397949   C214.644806,821.534912 225.957962,821.628601 235.221817,831.757568   C233.228119,833.203552 231.291443,834.608154 229.013336,836.164429  z"/>
<path fill="#363636" opacity="1.000000" stroke="none" d=" M380.210175,292.874695   C374.156250,290.010834 367.680176,288.494324 363.544678,282.818878   C378.408539,284.885956 392.772919,287.667480 407.260803,288.677063   C421.635590,289.678772 436.134735,288.896271 450.603271,288.896271   C451.450439,276.233368 452.335510,263.004211 453.306091,248.496399   C443.878143,250.821152 434.679108,252.638657 425.769165,255.391815   C412.300110,259.553802 398.770721,263.024506 384.596985,260.930573   C376.964447,259.803009 369.489502,257.608856 361.796204,255.862503   C371.440247,251.051056 380.679413,246.923676 389.423218,241.929123   C396.623352,237.816345 403.307129,232.775650 410.095581,227.970749   C427.731964,215.487518 448.031342,209.870514 468.645294,205.020554   C472.364960,204.145416 476.076843,203.237015 479.790253,202.335480   C482.566193,201.661530 483.580994,200.381989 482.459229,197.299026   C472.635925,170.301270 462.992859,143.237808 453.106628,116.263359   C452.635773,114.978622 450.378632,113.537552 448.959137,113.543533   C439.964630,113.581398 430.967987,114.338737 421.979095,114.236755   C401.736206,114.007088 386.258057,123.703056 373.176758,137.778244   C359.438324,152.560547 352.150055,171.081253 344.928375,189.555038   C335.985291,212.432358 327.468903,235.500900 317.694275,258.020721   C310.314392,275.023132 300.051422,290.448090 286.345734,303.294891   C267.490143,320.968872 244.708572,326.578491 219.842422,323.519012   C197.781204,320.804657 180.147583,300.758362 177.969727,278.142761   C176.928970,267.335419 177.769424,256.894318 182.578354,246.968124   C191.972000,227.578537 213.451462,216.773010 237.797531,219.269897   C239.441467,219.438492 241.081085,219.649124 242.910919,219.305801   C235.565491,211.940063 226.018402,210.004990 215.619324,208.884628   C220.954102,194.930084 226.159119,181.333588 231.350204,167.731766   C238.396515,149.268814 245.562119,130.849228 252.333588,112.285912   C253.360092,109.471840 253.424255,105.662148 252.417953,102.856598   C246.252075,85.666496 239.805878,68.571205 233.088409,51.588558   C231.294373,47.053017 232.507462,44.857136 236.573181,43.096779   C253.777969,35.647518 271.999451,31.882271 290.204010,27.969645   C337.180023,17.873293 384.726501,17.081354 432.429779,19.245989   C451.785828,20.124308 470.679871,24.128862 489.358582,29.170586   C493.262482,30.224310 494.800842,31.807726 493.160126,36.194157   C484.550842,59.211132 476.138519,82.303093 467.889526,105.451584   C467.047882,107.813469 467.019135,110.981087 467.845764,113.343582   C479.304108,146.092407 490.978058,178.765778 502.880096,212.247513   C496.069519,213.853302 489.528046,215.452362 482.959717,216.932312   C469.901306,219.874619 469.831543,219.842941 468.891144,232.890625   C467.204010,256.299316 465.601868,279.714111 463.918365,303.781433   C436.046448,301.816498 407.594360,303.326752 380.210175,292.874695  z"/>
<path fill="#363636" opacity="1.000000" stroke="none" d=" M306.294312,300.274658   C309.570038,296.057861 312.616852,292.111908 316.346008,287.282288   C359.946228,313.033447 408.560028,319.493042 459.250732,322.543762   C449.582581,361.934418 440.186066,400.218475 430.404022,440.073212   C380.269379,401.695740 334.405243,360.661102 286.617767,321.208710   C293.215637,314.198486 299.640533,307.372009 306.294312,300.274658  z"/>
<path fill="#808080" opacity="1.000000" stroke="none" d=" M419.599121,142.775146   C426.367249,142.464218 431.263824,145.548264 435.838043,149.539139   C427.107819,160.151810 416.645691,159.757477 406.897705,150.119095   C409.932220,145.873810 414.538208,144.303314 419.599121,142.775146  z"/>
</svg>