<svg xmlns="http://www.w3.org/2000/svg" xmlns:xlink="http://www.w3.org/1999/xlink" version="1.1" id="Layer_1" x="0px" y="0px" width="100%" viewBox="0 0 980 1000" enable-background="new 0 0 980 1000" xml:space="preserve">
<path fill="#363636" opacity="1.000000" stroke="none" d=" M900.000000,1.000001   C904.689270,1.000000 909.378479,1.000000 914.677734,1.382075   C944.566589,4.569652 969.915100,25.985540 978.073120,54.803478   C979.036255,58.205849 980.023743,61.601345 981.000000,65.000008   C981.000000,71.687645 981.000000,78.375290 980.638855,85.676605   C977.775879,100.146523 972.092529,112.289711 962.972168,123.271873   C934.731384,157.277344 882.025635,154.044998 857.776550,129.979248   C845.609009,117.903664 837.160034,104.056244 833.950562,87.101112   C832.448669,79.166824 831.857117,78.786827 823.717346,79.016502   C808.029785,79.459160 793.732178,84.281685 780.558838,92.738052   C763.872620,103.449371 752.790527,118.798912 744.380615,136.324997   C743.140076,138.910095 742.304932,141.938919 742.222412,144.789673   C741.716248,162.274017 741.500305,179.766602 741.149597,197.255676   C740.761414,216.610886 735.354919,234.580322 726.186340,251.531891   C715.731873,270.860992 701.872375,287.661011 687.412720,304.021820   C681.346130,310.886047 675.237000,317.712769 669.130737,324.541809   C666.399963,327.595825 665.826355,330.312134 669.346985,333.452667   C672.180725,335.980438 674.501892,339.109039 676.903931,342.089142   C682.820190,349.428955 688.652222,356.836731 694.891785,364.687408   C712.501099,345.413818 732.907837,331.785370 758.749268,327.753540   C784.888794,323.675110 808.635437,330.249115 830.323181,344.605743   C847.355408,355.880646 859.291199,371.508209 865.943909,390.837524   C876.328491,421.009735 872.161987,450.081543 858.271790,478.579224   C862.796692,480.768921 867.297546,482.861389 871.722534,485.103485   C888.985046,493.850098 901.443787,507.222412 909.769592,524.609375   C915.114624,535.771545 913.827209,547.688599 914.044800,559.460449   C914.523743,585.372253 901.545898,604.323059 882.471558,619.904297   C875.311829,625.752869 874.989502,625.357910 879.922668,633.460876   C880.182068,633.886963 880.441711,634.313049 880.688904,634.746155   C905.548279,678.305115 884.842102,733.595947 837.419189,750.181824   C832.895752,751.763977 828.252930,753.004639 822.888794,754.640747   C822.888794,759.525024 822.920410,764.508362 822.883240,769.491089   C822.731750,789.815735 815.151917,806.454712 799.360901,819.663757   C768.682251,845.325867 719.726318,836.093689 701.036255,800.751160   C698.799438,796.521240 696.770813,792.181274 694.408508,787.413879   C690.483032,794.028992 687.347107,800.721558 682.942810,806.436646   C674.320068,817.625488 664.939697,828.227783 655.963318,839.147278   C639.287659,859.432678 627.183960,882.624023 613.853638,905.065002   C601.981689,925.050903 590.303589,945.314270 576.510864,963.953796   C561.038269,984.863464 540.252625,998.551208 512.945618,999.512878   C508.951233,999.653564 504.981262,1000.487061 501.000000,1001.000000   C498.958344,1001.000000 496.916656,1001.000000 494.243103,1000.608887   C484.883209,1000.123291 476.155304,1000.011902 467.427094,999.980408   C466.952606,999.978699 466.475708,1000.644714 466.000000,1001.000000   C464.933319,1001.000000 463.866669,1001.000000 462.237000,1000.624939   C429.882019,996.449402 404.540588,981.726135 387.443726,954.527832   C376.848633,937.672791 367.364655,920.085083 358.015076,902.489807   C345.912811,879.714233 334.398743,856.559998 317.857544,836.590515   C306.337677,822.683167 296.103485,808.014465 287.233795,792.335938   C286.709503,791.409241 286.097565,790.532104 285.229706,789.164185   C284.188416,791.113037 283.400299,792.544556 282.651184,793.996277   C267.888733,822.605103 244.664658,837.137756 212.065338,833.172974   C187.098068,830.136353 162.049820,808.143494 158.047775,783.302612   C156.523163,773.839294 156.835190,764.080200 156.296051,754.196716   C153.136414,753.231934 149.844879,752.073608 146.475876,751.221619   C110.484032,742.119263 79.270073,702.551758 91.849037,655.226440   C94.240715,646.228333 99.112885,637.873840 103.012169,629.300415   C104.442131,626.156372 104.899376,624.423523 101.211143,621.849243   C78.705956,606.141418 65.208633,584.810608 65.262268,556.874878   C65.324615,524.399597 80.234192,500.309784 109.244667,485.247101   C113.596329,482.987640 117.969276,480.769196 122.488525,478.451660   C100.361130,430.018402 103.071739,386.231781 144.014191,348.962677   C195.610809,312.998383 242.515778,320.992859 285.851410,364.237244   C295.697571,352.328217 305.538696,340.425323 315.557098,328.307983   C313.386200,326.022491 311.471619,323.962219 309.509583,321.948242   C292.158051,304.137299 276.232941,285.172852 262.069977,264.692780   C248.687347,245.341049 240.405258,224.387451 239.732895,200.644592   C239.284851,184.823334 238.816422,168.993484 237.820450,153.201340   C237.417847,146.817612 236.938217,139.825867 234.107651,134.342484   C229.042526,124.530319 223.041428,114.904655 215.873856,106.535027   C200.008972,88.009460 178.642258,80.442970 154.791550,79.167770   C148.692505,78.841675 146.528366,80.647285 146.034760,85.597504   C144.236465,103.631706 135.222961,118.313797 122.360092,129.923218   C86.228302,162.534149 29.558640,151.586594 7.323486,108.326668   C4.941363,103.692093 3.094932,98.782188 1.000000,94.000000   C1.000000,83.312439 1.000000,72.624878 1.365132,61.323174   C5.151797,30.635033 32.622078,7.507087 57.662781,2.683321   C59.161015,2.394707 60.556633,1.573422 62.000000,1.000000   C67.022095,1.000000 72.044182,1.000000 77.695763,1.374815   C93.246941,3.125215 107.488914,7.462762 118.573425,17.399742   C127.471764,25.376877 135.649551,25.654205 146.391144,22.759848   C179.610718,13.808723 213.499557,10.505914 247.831604,14.365334   C291.630737,19.288986 332.048645,34.162792 369.898499,56.457779   C407.892212,78.837502 441.525146,106.666107 472.416077,137.978607   C477.760376,143.395844 483.533691,148.389816 489.270782,153.730026   C491.216644,152.172150 492.713715,151.133072 494.025757,149.897537   C503.120880,141.332581 512.294556,132.846466 521.225769,124.112900   C556.365906,89.750504 595.434875,61.146690 640.321411,40.558502   C678.207214,23.181362 717.603760,13.296993 759.364990,12.895065   C788.600952,12.613686 816.974670,17.983845 845.036377,25.424425   C849.171692,26.520908 851.805847,25.706848 854.743530,22.893164   C864.920959,13.145268 876.955627,6.658583 890.673950,3.334781   C893.788330,2.580179 896.891602,1.779480 900.000000,1.000001  M294.381500,471.900330   C273.735291,501.278412 268.436218,533.605042 277.708740,567.896973   C285.507050,596.736938 294.580170,625.245544 303.695221,653.706604   C305.969513,660.807922 305.483704,665.826416 301.217896,672.207397   C284.039001,697.904724 281.583221,725.034912 296.212646,752.858948   C301.158905,762.266296 306.524414,771.473816 312.093475,780.529663   C337.439026,821.743835 362.911652,862.879883 388.368134,904.025818   C398.128021,919.800964 409.036835,934.682312 422.885071,947.182861   C460.390656,981.038757 508.475830,986.333801 550.967712,953.234375   C567.666138,940.227051 580.204224,923.785767 591.072937,905.859802   C613.738403,868.477112 636.540283,831.177185 659.179077,793.778381   C667.871155,779.419373 676.099060,764.778381 684.851868,750.457458   C693.918640,735.622803 693.941345,719.432251 692.421082,703.052429   C691.279236,690.750427 684.222046,680.686829 678.391174,670.322571   C675.696960,665.533630 674.862976,661.268860 676.568726,656.182922   C681.953979,640.125916 687.326782,624.063477 692.518677,607.943298   C699.035034,587.710754 706.236755,567.693787 707.358765,546.084595   C709.116394,512.234314 699.476135,482.695221 675.670715,458.179169   C667.314148,449.573151 658.763184,441.154572 650.480408,432.479095   C648.086548,429.971802 645.600830,429.106842 642.175049,429.111328   C571.684204,429.203796 501.193359,429.180878 430.702484,429.180878   C399.706482,429.180908 368.710419,429.152313 337.714722,429.247955   C335.734863,429.254089 333.067596,429.578339 331.886017,430.843506   C319.398407,444.214020 307.147736,457.805847 294.381500,471.900330  z"/>
<path fill="transparent" opacity="1.000000" stroke="none" d=" M501.468658,1001.000000   C504.981262,1000.487061 508.951233,999.653564 512.945618,999.512878   C540.252625,998.551208 561.038269,984.863464 576.510864,963.953796   C590.303589,945.314270 601.981689,925.050903 613.853638,905.065002   C627.183960,882.624023 639.287659,859.432678 655.963318,839.147278   C664.939697,828.227783 674.320068,817.625488 682.942810,806.436646   C687.347107,800.721558 690.483032,794.028992 694.408508,787.413879   C696.770813,792.181274 698.799438,796.521240 701.036255,800.751160   C719.726318,836.093689 768.682251,845.325867 799.360901,819.663757   C815.151917,806.454712 822.731750,789.815735 822.883240,769.491089   C822.920410,764.508362 822.888794,759.525024 822.888794,754.640747   C828.252930,753.004639 832.895752,751.763977 837.419189,750.181824   C884.842102,733.595947 905.548279,678.305115 880.688904,634.746155   C880.441711,634.313049 880.182068,633.886963 879.922668,633.460876   C874.989502,625.357910 875.311829,625.752869 882.471558,619.904297   C901.545898,604.323059 914.523743,585.372253 914.044800,559.460449   C913.827209,547.688599 915.114624,535.771545 909.769592,524.609375   C901.443787,507.222412 888.985046,493.850098 871.722534,485.103485   C867.297546,482.861389 862.796692,480.768921 858.271790,478.579224   C872.161987,450.081543 876.328491,421.009735 865.943909,390.837524   C859.291199,371.508209 847.355408,355.880646 830.323181,344.605743   C808.635437,330.249115 784.888794,323.675110 758.749268,327.753540   C732.907837,331.785370 712.501099,345.413818 694.891785,364.687408   C688.652222,356.836731 682.820190,349.428955 676.903931,342.089142   C674.501892,339.109039 672.180725,335.980438 669.346985,333.452667   C665.826355,330.312134 666.399963,327.595825 669.130737,324.541809   C675.237000,317.712769 681.346130,310.886047 687.412720,304.021820   C701.872375,287.661011 715.731873,270.860992 726.186340,251.531891   C735.354919,234.580322 740.761414,216.610886 741.149597,197.255676   C741.500305,179.766602 741.716248,162.274017 742.222412,144.789673   C742.304932,141.938919 743.140076,138.910095 744.380615,136.324997   C752.790527,118.798912 763.872620,103.449371 780.558838,92.738052   C793.732178,84.281685 808.029785,79.459160 823.717346,79.016502   C831.857117,78.786827 832.448669,79.166824 833.950562,87.101112   C837.160034,104.056244 845.609009,117.903664 857.776550,129.979248   C882.025635,154.044998 934.731384,157.277344 962.972168,123.271873   C972.092529,112.289711 977.775879,100.146523 980.638855,86.145142   C981.000000,390.904419 981.000000,695.808838 981.000000,1001.000000   C821.312561,1001.000000 661.624939,1001.000000 501.468658,1001.000000  z"/>
<path fill="transparent" opacity="1.000000" stroke="none" d=" M1.000000,94.468658   C3.094932,98.782188 4.941363,103.692093 7.323486,108.326668   C29.558640,151.586594 86.228302,162.534149 122.360092,129.923218   C135.222961,118.313797 144.236465,103.631706 146.034760,85.597504   C146.528366,80.647285 148.692505,78.841675 154.791550,79.167770   C178.642258,80.442970 200.008972,88.009460 215.873856,106.535027   C223.041428,114.904655 229.042526,124.530319 234.107651,134.342484   C236.938217,139.825867 237.417847,146.817612 237.820450,153.201340   C238.816422,168.993484 239.284851,184.823334 239.732895,200.644592   C240.405258,224.387451 248.687347,245.341049 262.069977,264.692780   C276.232941,285.172852 292.158051,304.137299 309.509583,321.948242   C311.471619,323.962219 313.386200,326.022491 315.557098,328.307983   C305.538696,340.425323 295.697571,352.328217 285.851410,364.237244   C242.515778,320.992859 195.610809,312.998383 144.014191,348.962677   C103.071739,386.231781 100.361130,430.018402 122.488525,478.451660   C117.969276,480.769196 113.596329,482.987640 109.244667,485.247101   C80.234192,500.309784 65.324615,524.399597 65.262268,556.874878   C65.208633,584.810608 78.705956,606.141418 101.211143,621.849243   C104.899376,624.423523 104.442131,626.156372 103.012169,629.300415   C99.112885,637.873840 94.240715,646.228333 91.849037,655.226440   C79.270073,702.551758 110.484032,742.119263 146.475876,751.221619   C149.844879,752.073608 153.136414,753.231934 156.296051,754.196716   C156.835190,764.080200 156.523163,773.839294 158.047775,783.302612   C162.049820,808.143494 187.098068,830.136353 212.065338,833.172974   C244.664658,837.137756 267.888733,822.605103 282.651184,793.996277   C283.400299,792.544556 284.188416,791.113037 285.229706,789.164185   C286.097565,790.532104 286.709503,791.409241 287.233795,792.335938   C296.103485,808.014465 306.337677,822.683167 317.857544,836.590515   C334.398743,856.559998 345.912811,879.714233 358.015076,902.489807   C367.364655,920.085083 376.848633,937.672791 387.443726,954.527832   C404.540588,981.726135 429.882019,996.449402 461.837036,1000.624939   C308.382477,1001.000000 154.764923,1001.000000 1.000000,1001.000000   C1.000000,698.979126 1.000000,396.958221 1.000000,94.468658  z"/>
<path fill="transparent" opacity="1.000000" stroke="none" d=" M899.531372,1.000001   C896.891602,1.779480 893.788330,2.580179 890.673950,3.334781   C876.955627,6.658583 864.920959,13.145268 854.743530,22.893164   C851.805847,25.706848 849.171692,26.520908 845.036377,25.424425   C816.974670,17.983845 788.600952,12.613686 759.364990,12.895065   C717.603760,13.296993 678.207214,23.181362 640.321411,40.558502   C595.434875,61.146690 556.365906,89.750504 521.225769,124.112900   C512.294556,132.846466 503.120880,141.332581 494.025757,149.897537   C492.713715,151.133072 491.216644,152.172150 489.270782,153.730026   C483.533691,148.389816 477.760376,143.395844 472.416077,137.978607   C441.525146,106.666107 407.892212,78.837502 369.898499,56.457779   C332.048645,34.162792 291.630737,19.288986 247.831604,14.365334   C213.499557,10.505914 179.610718,13.808723 146.391144,22.759848   C135.649551,25.654205 127.471764,25.376877 118.573425,17.399742   C107.488914,7.462762 93.246941,3.125215 78.162628,1.374815   C351.687561,1.000000 625.375122,1.000000 899.531372,1.000001  z"/>
<path fill="#FDFDFD" opacity="1.000000" stroke="none" d=" M981.000000,64.531349   C980.023743,61.601345 979.036255,58.205849 978.073120,54.803478   C969.915100,25.985540 944.566589,4.569652 915.143860,1.382075   C936.925720,1.000000 958.851379,1.000000 981.000000,1.000000   C981.000000,22.020369 981.000000,43.041527 981.000000,64.531349  z"/>
<path fill="#FDFDFD" opacity="1.000000" stroke="none" d=" M61.531342,1.000000   C60.556633,1.573422 59.161015,2.394707 57.662781,2.683321   C32.622078,7.507087 5.151797,30.635033 1.365132,60.854515   C1.000000,41.072586 1.000000,21.145168 1.000000,1.000000   C21.020369,1.000000 41.041527,1.000000 61.531342,1.000000  z"/>
<path fill="#6B6B6B" opacity="1.000000" stroke="none" d=" M466.468628,1001.000000   C466.475708,1000.644714 466.952606,999.978699 467.427094,999.980408   C476.155304,1000.011902 484.883209,1000.123291 493.805603,1000.608887   C484.979095,1001.000000 475.958221,1001.000000 466.468628,1001.000000  z"/>
<path fill="transparent" opacity="1.000000" stroke="none" d=" M294.606628,471.618469   C307.147736,457.805847 319.398407,444.214020 331.886017,430.843506   C333.067596,429.578339 335.734863,429.254089 337.714722,429.247955   C368.710419,429.152313 399.706482,429.180908 430.702484,429.180878   C501.193359,429.180878 571.684204,429.203796 642.175049,429.111328   C645.600830,429.106842 648.086548,429.971802 650.480408,432.479095   C658.763184,441.154572 667.314148,449.573151 675.670715,458.179169   C699.476135,482.695221 709.116394,512.234314 707.358765,546.084595   C706.236755,567.693787 699.035034,587.710754 692.518677,607.943298   C687.326782,624.063477 681.953979,640.125916 676.568726,656.182922   C674.862976,661.268860 675.696960,665.533630 678.391174,670.322571   C684.222046,680.686829 691.279236,690.750427 692.421082,703.052429   C693.941345,719.432251 693.918640,735.622803 684.851868,750.457458   C676.099060,764.778381 667.871155,779.419373 659.179077,793.778381   C636.540283,831.177185 613.738403,868.477112 591.072937,905.859802   C580.204224,923.785767 567.666138,940.227051 550.967712,953.234375   C508.475830,986.333801 460.390656,981.038757 422.885071,947.182861   C409.036835,934.682312 398.128021,919.800964 388.368134,904.025818   C362.911652,862.879883 337.439026,821.743835 312.093475,780.529663   C306.524414,771.473816 301.158905,762.266296 296.212646,752.858948   C281.583221,725.034912 284.039001,697.904724 301.217896,672.207397   C305.483704,665.826416 305.969513,660.807922 303.695221,653.706604   C294.580170,625.245544 285.507050,596.736938 277.708740,567.896973   C268.436218,533.605042 273.735291,501.278412 294.606628,471.618469  M537.421143,776.754395   C481.330811,776.686951 425.178070,779.623779 368.188873,772.163086   C369.803040,775.665100 370.657898,777.973999 371.869049,780.077881   C385.377747,803.543030 398.487671,827.255005 412.641785,850.325806   C422.966705,867.155151 434.278687,883.425537 445.900879,899.399231   C457.525055,915.375671 473.198975,922.257263 493.557709,920.404663   C512.093994,918.717957 526.974426,911.918884 537.478577,896.650208   C547.744751,881.727478 557.921753,866.703491 567.282410,851.207092   C581.363403,827.896118 594.722900,804.148621 608.314148,780.543457   C609.631836,778.254883 610.423218,775.663208 611.562622,772.966614   C598.665649,773.931763 586.768372,775.042175 574.845581,775.653076   C562.708435,776.274902 550.546082,776.405029 537.421143,776.754395  M550.000732,688.521851   C549.030762,682.155701 549.146667,675.375061 546.902710,669.495178   C537.253357,644.211060 517.612549,632.035156 491.383484,630.152710   C467.766815,628.457825 435.473480,645.882690 430.175659,683.005310   C424.111145,725.500305 464.927612,758.222168 501.820618,750.514099   C525.231567,745.622803 551.890259,723.740601 550.000732,688.521851  M396.113190,569.242676   C380.963623,564.115601 366.948822,567.001831 353.764374,575.352539   C342.770630,582.315735 334.286407,591.924561 326.343781,602.018005   C322.299042,607.157959 322.787262,609.063721 328.291412,612.913757   C341.496948,622.150818 356.308807,626.570679 372.285919,626.875061   C396.079193,627.328369 418.684906,621.400574 440.837219,613.360107   C441.694336,613.048950 442.437775,612.424866 443.827881,611.589966   C431.352295,593.569824 417.720703,577.586853 396.113190,569.242676  M640.681030,619.252869   C644.556641,617.005615 648.503845,614.871582 652.288086,612.479919   C656.212830,609.999329 656.821289,606.986572 654.069763,602.869995   C646.647461,591.765198 637.588135,582.143616 626.261963,575.293579   C609.385437,565.086670 591.673462,563.052307 573.956360,573.731873   C559.886169,582.213074 549.003296,594.061462 539.442871,607.219971   C538.517822,608.493225 537.998108,610.060974 537.096069,611.884460   C539.742004,613.051514 541.909180,614.307312 544.244141,614.985535   C554.439270,617.946594 564.571167,621.260925 574.932373,623.486206   C596.912537,628.206970 618.819458,628.979980 640.681030,619.252869  z"/>
<path fill="#363636" opacity="1.000000" stroke="none" d=" M537.907959,776.752441   C550.546082,776.405029 562.708435,776.274902 574.845581,775.653076   C586.768372,775.042175 598.665649,773.931763 611.562622,772.966614   C610.423218,775.663208 609.631836,778.254883 608.314148,780.543457   C594.722900,804.148621 581.363403,827.896118 567.282410,851.207092   C557.921753,866.703491 547.744751,881.727478 537.478577,896.650208   C526.974426,911.918884 512.093994,918.717957 493.557709,920.404663   C473.198975,922.257263 457.525055,915.375671 445.900879,899.399231   C434.278687,883.425537 422.966705,867.155151 412.641785,850.325806   C398.487671,827.255005 385.377747,803.543030 371.869049,780.077881   C370.657898,777.973999 369.803040,775.665100 368.188873,772.163086   C425.178070,779.623779 481.330811,776.686951 537.907959,776.752441  z"/>
<path fill="#363636" opacity="1.000000" stroke="none" d=" M550.004944,689.011292   C551.890259,723.740601 525.231567,745.622803 501.820618,750.514099   C464.927612,758.222168 424.111145,725.500305 430.175659,683.005310   C435.473480,645.882690 467.766815,628.457825 491.383484,630.152710   C517.612549,632.035156 537.253357,644.211060 546.902710,669.495178   C549.146667,675.375061 549.030762,682.155701 550.004944,689.011292  z"/>
<path fill="#363636" opacity="1.000000" stroke="none" d=" M396.468689,569.415405   C417.720703,577.586853 431.352295,593.569824 443.827881,611.589966   C442.437775,612.424866 441.694336,613.048950 440.837219,613.360107   C418.684906,621.400574 396.079193,627.328369 372.285919,626.875061   C356.308807,626.570679 341.496948,622.150818 328.291412,612.913757   C322.787262,609.063721 322.299042,607.157959 326.343781,602.018005   C334.286407,591.924561 342.770630,582.315735 353.764374,575.352539   C366.948822,567.001831 380.963623,564.115601 396.468689,569.415405  z"/>
<path fill="#363636" opacity="1.000000" stroke="none" d=" M640.365906,619.459839   C618.819458,628.979980 596.912537,628.206970 574.932373,623.486206   C564.571167,621.260925 554.439270,617.946594 544.244141,614.985535   C541.909180,614.307312 539.742004,613.051514 537.096069,611.884460   C537.998108,610.060974 538.517822,608.493225 539.442871,607.219971   C549.003296,594.061462 559.886169,582.213074 573.956360,573.731873   C591.673462,563.052307 609.385437,565.086670 626.261963,575.293579   C637.588135,582.143616 646.647461,591.765198 654.069763,602.869995   C656.821289,606.986572 656.212830,609.999329 652.288086,612.479919   C648.503845,614.871582 644.556641,617.005615 640.365906,619.459839  z"/>
</svg>