<svg xmlns="http://www.w3.org/2000/svg" xmlns:xlink="http://www.w3.org/1999/xlink" version="1.1" id="Layer_1" x="0px" y="0px" width="100%" viewBox="0 0 682 980" enable-background="new 0 0 682 980" xml:space="preserve">
<path fill="#363636" opacity="1.000000" stroke="none" d=" M365.000000,1.000008   C366.066528,1.000000 367.133026,1.000000 368.516205,1.348767   C379.175507,9.825949 389.516083,17.957062 399.862061,26.081234   C403.214905,28.714062 406.097290,29.105505 409.918579,26.053587   C419.278137,18.578522 429.185547,11.793502 438.693939,4.498113   C441.408234,2.415558 443.307556,2.448348 445.431702,4.953517   C448.337128,8.380065 451.351837,11.714803 454.223877,15.168563   C459.758820,21.824656 465.201538,28.557394 470.733276,35.216167   C473.277435,38.278618 476.238983,39.046417 480.023438,37.154236   C483.726990,35.302505 487.685333,33.965385 491.507324,32.344543   C500.234222,28.643625 508.946106,24.907326 518.511108,20.823790   C511.545258,38.618980 505.261200,55.573952 498.291016,72.241997   C490.232330,91.512917 489.421478,111.365471 494.889862,130.952286   C504.714355,166.142288 515.865295,200.961884 526.446045,235.941086   C526.849304,237.274246 527.086121,238.657761 527.479126,240.357697   C519.800964,241.493484 512.568848,242.513489 505.353577,243.640961   C490.316956,245.990616 490.430634,246.081497 492.483612,261.212372   C495.182251,281.101807 500.792816,300.188782 507.598938,318.987457   C508.925659,322.652008 509.978241,326.415894 511.323151,330.657013   C504.407715,331.852600 498.214142,332.962830 492.005646,333.981964   C488.279388,334.593628 485.943604,336.462158 484.279724,340.045013   C472.245789,365.957520 460.004578,391.773743 447.825470,417.618835   C445.762756,421.996002 443.682831,426.365021 441.437439,431.103790   C395.177856,393.068390 349.403290,355.431763 303.567810,317.745056   C300.223572,320.433411 297.138428,322.913513 293.734375,325.649963   C344.129883,367.018036 394.270935,408.177246 445.428284,450.170746   C462.541168,414.202484 479.122955,379.350525 496.287292,343.274109   C517.882019,364.630585 538.744446,385.262848 559.750854,406.037506   C562.119507,402.440186 564.404846,399.169952 566.486450,395.774750   C578.014221,376.972137 602.388062,375.352814 616.229980,379.375549   C637.216980,385.474762 650.657227,410.809540 645.466980,432.115417   C643.218628,441.344604 638.242249,448.814789 631.485107,455.267090   C628.716370,457.910889 627.357971,460.480774 630.001160,464.357849   C631.365784,466.359619 631.670105,469.420166 631.631165,471.989868   C631.308105,493.301086 630.723450,514.608215 630.365356,535.919067   C630.192261,546.221069 630.335449,556.528259 630.335449,566.041504   C648.403992,571.141113 665.273926,575.902405 681.285095,580.421387   C681.285095,588.558167 681.285095,595.244751 681.285095,602.635742   C676.454712,599.799133 672.685791,597.037231 668.504089,595.231262   C655.120850,589.451355 641.038086,586.049866 626.526794,585.026184   C595.288208,582.822510 564.016357,581.093506 532.772949,578.953979   C516.081116,577.810913 499.745667,574.950623 484.791473,566.784119   C483.470520,566.062744 482.037170,565.547058 480.854523,565.023682   C478.264008,574.494263 482.272949,579.761292 490.408112,582.397339   C501.594208,586.021973 512.682434,590.115723 524.094055,592.820801   C532.212646,594.745239 540.795532,594.711243 549.509399,595.585205   C549.509399,597.470215 549.509460,599.448242 549.509460,601.426270   C549.509460,683.759033 549.502014,766.091797 549.548218,848.424561   C549.549500,850.699036 549.549316,853.262634 550.523010,855.203125   C560.745117,875.575378 571.165894,895.847961 581.401917,915.893921   C581.439026,915.819397 581.878723,914.972473 582.287964,914.111084   C589.483154,898.963379 596.157288,883.537537 604.051941,868.763855   C609.159668,859.205688 612.018616,849.737671 611.109192,838.889465   C610.512573,831.772888 610.975159,824.565613 610.999939,817.399048   C611.246460,746.235107 611.498047,675.071228 611.765869,603.907349   C611.773132,601.988159 611.979675,600.069824 612.117737,597.738220   C617.202271,598.193115 621.610046,598.587402 626.284424,599.005615   C626.284424,600.957458 626.284424,602.433289 626.284424,603.909119   C626.284424,681.241882 626.005127,758.576599 626.535828,835.905762   C626.634094,850.225037 623.729004,862.572571 616.559082,874.992676   C602.868286,898.708557 589.504578,922.730286 581.808960,949.319031   C581.645630,949.883667 581.096497,950.336731 580.714905,950.858826   C578.890991,945.693054 577.620117,940.484863 575.300781,935.795288   C563.524170,911.983887 551.579163,888.253723 539.427063,864.632019   C537.236755,860.374329 535.929260,856.342529 535.938782,851.486084   C536.067444,785.820129 536.025146,720.153870 536.025085,654.487671   C536.025085,652.755676 536.025085,651.023682 536.025085,649.481323   C522.491272,657.462830 509.500153,665.477905 496.132477,672.806030   C491.755035,675.205688 490.614655,677.178223 492.169434,682.001099   C498.214386,700.752319 489.673279,726.385620 474.101440,737.479797   C452.652924,752.760864 424.402924,745.534485 414.630554,722.249817   C414.073364,720.922302 413.721405,719.508545 413.273956,718.134949   C413.696320,717.812988 414.118652,717.491028 414.541016,717.169067   C419.833344,725.204468 427.273834,729.736023 436.472778,730.504883   C445.837555,731.287537 455.402985,732.889587 464.126465,727.198853   C476.870331,718.885376 481.022491,706.679749 479.903687,692.284790   C478.755707,677.514648 471.652588,666.049316 458.023804,660.112366   C437.036865,650.970032 416.730652,652.710449 398.393524,667.179871   C386.994598,676.174438 379.939606,688.467896 374.171387,701.518677   C367.237427,717.207031 360.468689,732.968506 353.203339,749.675903   C338.683044,718.459900 319.411621,692.528503 289.282593,676.116638   C258.945831,659.591492 226.461334,658.804626 192.072174,661.923279   C198.655029,686.496887 206.506592,709.884888 205.624359,735.188477   C240.299240,735.362061 267.709351,720.974915 290.600830,696.444580   C290.918060,696.743286 291.235291,697.042053 291.552521,697.340820   C289.042572,702.437073 286.532654,707.533325 283.963440,712.750000   C284.777191,713.345276 285.415955,713.860718 286.100281,714.306213   C309.689545,729.662781 327.667847,749.936584 339.883331,775.339844   C341.200958,778.079895 341.474823,780.276917 340.234009,783.180786   C333.708618,798.452148 327.450256,813.837402 321.069672,829.170898   C316.082672,841.155334 316.063385,841.149231 303.200958,839.902954   C302.914276,839.875244 302.644745,839.670776 302.126801,839.443115   C302.654388,838.077576 303.159119,836.701172 303.714081,835.345276   C310.696960,818.285217 317.634430,801.206238 324.726959,784.191833   C325.917633,781.335510 326.056366,779.016724 324.246429,776.340393   C318.953094,768.513306 314.480560,760.048767 308.558502,752.749146   C300.388428,742.678528 291.384247,733.239197 279.595947,727.070190   C276.366608,725.380249 274.079834,726.090942 271.019348,728.066650   C263.680176,732.804260 256.316345,738.458191 248.127747,740.719543   C232.821899,744.946289 216.962112,747.254639 201.256744,749.911743   C192.782974,751.345398 184.151825,751.848755 175.331299,752.799866   C175.897430,755.160645 176.209702,756.789185 176.678925,758.371155   C185.465698,787.996399 194.357910,817.590881 202.968353,847.267212   C204.110321,851.203003 205.723816,852.291931 209.773376,852.283569   C279.939240,852.139099 350.105530,852.179565 420.271698,852.179565   C422.212738,852.179565 424.153809,852.179565 425.870880,852.179565   C426.224182,853.012207 426.449524,853.307434 426.461639,853.611084   C426.527863,855.274109 426.715118,856.957214 426.545593,858.600891   C425.427917,869.437683 428.989929,878.781860 434.979858,887.639038   C442.339508,898.521667 449.258118,909.703369 456.324249,920.783264   C458.176178,923.687134 459.868347,926.692810 462.163727,930.539673   C459.254547,930.104736 457.339111,929.910522 455.463593,929.523010   C444.062897,927.167053 432.630524,924.941650 421.297546,922.292603   C416.993744,921.286682 414.696930,922.216797 412.823364,926.353699   C408.165283,936.639099 403.118713,946.751587 398.091858,956.865784   C394.588837,963.913940 391.738281,964.927368 384.497437,961.797668   C380.690125,960.152100 377.029510,958.168762 373.290649,956.362793   C366.712982,953.185425 360.111328,950.057373 353.549103,946.848633   C350.022614,945.124207 347.627411,945.867859 345.030792,949.053833   C336.219513,959.864746 327.039276,970.374939 318.000000,981.000000   C317.250000,981.000000 316.500000,981.000000 315.378418,980.652954   C304.663147,971.905945 294.238495,963.602539 284.025116,955.046997   C280.975372,952.492310 278.800659,952.318970 275.516876,954.820190   C265.326019,962.582458 254.779266,969.875854 244.520142,977.551086   C241.290359,979.967346 239.324524,979.620850 236.897858,976.422791   C229.047211,966.076782 220.875015,955.975220 212.971542,945.668518   C211.036118,943.144592 209.289124,942.571899 206.286316,943.917297   C198.561157,947.378723 190.710724,950.568481 182.850601,953.717651   C178.035355,955.646973 173.109863,957.301086 167.334244,959.406799   C168.110794,956.540039 168.440903,954.762634 169.067322,953.096680   C174.502487,938.641968 179.571762,924.030640 185.565826,909.809753   C193.684097,890.549255 194.588058,870.749146 189.132767,851.129395   C179.567245,816.727478 168.733704,782.678284 158.441437,748.478210   C157.797348,746.337952 157.240723,744.171326 156.457016,741.344727   C168.648376,739.697388 180.139160,738.144775 192.008026,736.541016   C193.071381,706.641052 181.193573,679.507935 173.029587,651.048096   C180.066956,649.930908 186.276062,648.952087 192.482590,647.957214   C195.819641,647.422180 197.985260,645.755615 199.483688,642.478882   C205.147568,630.093445 211.179779,617.877075 216.982376,605.554199   C225.520584,587.421875 233.980209,569.252563 242.593719,550.841614   C288.734833,588.840820 334.567505,626.585999 380.458099,664.378906   C383.874207,661.590332 386.914398,659.108582 390.224457,656.406555   C339.634552,614.831177 289.362976,573.517395 238.456116,531.681519   C221.427628,567.715088 204.872360,602.747375 188.317108,637.779602   C187.617462,638.071350 186.917816,638.363098 186.218170,638.654907   C166.167862,617.289246 146.117569,595.923584 125.645828,574.108826   C123.524017,577.210876 122.691025,578.251099 122.046661,579.397339   C112.099731,597.091858 97.647095,606.251465 76.812752,603.263367   C72.083061,602.584961 66.951981,602.654663 62.742836,600.750549   C44.012798,592.277283 33.795834,569.850159 38.646626,549.802979   C40.887119,540.543518 46.246025,533.364624 52.297710,526.369568   C53.829071,524.599426 54.431816,521.480530 54.373974,519.006775   C54.283577,515.140808 52.849449,511.309662 52.727039,507.440247   C52.464684,499.147003 52.467319,490.830841 52.780720,482.539917   C52.944183,478.215607 54.145039,473.939941 54.583797,469.612518   C54.791756,467.561462 54.371555,465.433594 54.130077,463.352814   C53.636581,459.100403 52.686378,454.863220 52.609554,450.607391   C52.396797,438.821289 52.535851,427.028870 52.535851,415.721436   C35.632259,410.955139 18.754023,406.195984 2.596089,401.639923   C2.596089,393.552704 2.596089,386.814545 2.596089,379.561432   C4.051852,380.212860 4.858974,380.418274 5.481232,380.875366   C20.898096,392.199341 39.015430,395.253387 57.285374,396.785461   C84.503044,399.067810 111.808655,400.288361 139.069519,402.072723   C160.881500,403.500336 182.598907,405.449249 202.148163,416.707336   C202.506561,416.913757 203.087799,416.733215 203.282684,416.733215   C205.633835,407.846985 201.896744,402.524963 193.716949,399.772430   C184.136673,396.548584 174.747070,392.510895 164.945343,390.261932   C155.159454,388.016602 144.966232,387.546509 134.490662,386.240753   C134.490662,384.752838 134.490662,382.779114 134.490662,380.805389   C134.490662,298.308899 134.496490,215.812408 134.457932,133.315933   C134.456940,131.196381 134.530396,128.792877 133.622849,127.001106   C123.319611,106.659317 112.831673,86.411079 102.572868,66.486824   C102.621056,66.395111 102.154030,67.233246 101.732635,68.093727   C92.896751,86.136444 83.993401,104.146896 75.312492,122.263916   C74.008873,124.984581 73.106865,128.205231 73.102600,131.196136   C72.985344,213.359146 73.008774,295.522339 73.008781,377.685516   C73.008781,379.486237 73.008781,381.286987 73.008781,383.086304   C67.715851,383.086304 62.847851,383.086304 57.725182,383.086304   C57.725182,380.756775 57.725182,378.777588 57.725182,376.798401   C57.725178,298.468384 57.899242,220.137573 57.532169,141.809280   C57.478855,130.432419 59.818954,120.625381 65.452141,110.718376   C79.730408,85.607407 92.975075,59.921989 102.593697,32.354630   C103.144737,33.372635 103.814384,34.325256 104.209251,35.380684   C115.430977,65.375038 130.878998,93.278893 146.426559,121.144867   C147.556122,123.169380 147.910309,125.862350 147.913055,128.245361   C147.989944,194.742432 147.974747,261.239624 147.974747,327.736786   C147.974747,329.437500 147.974747,331.138214 147.974747,332.609436   C161.983932,324.204773 175.549820,316.151825 188.977417,307.874512   C190.285660,307.068024 191.462448,304.877563 191.462494,303.329468   C191.462616,297.674042 190.889908,292.020935 190.620667,286.362793   C189.812241,269.374420 195.684814,255.332077 209.445038,245.053192   C230.599701,229.250656 258.611023,235.957367 269.115723,259.211029   C269.723511,260.556427 270.098633,262.006958 270.582031,263.408600   C267.455475,262.092377 265.393127,260.221161 263.269257,258.422516   C246.491425,244.213928 220.157959,248.254242 208.342255,266.624207   C203.994583,273.383545 203.734436,280.684418 204.070358,288.239777   C205.051071,310.297241 219.411652,322.607178 234.593277,325.502594   C260.623169,330.466858 282.016724,324.966217 299.351654,299.816071   C304.489044,292.362488 308.218597,283.860626 312.002533,275.569519   C318.363495,261.631866 324.251465,247.478394 330.897675,232.123642   C362.008453,303.296967 416.928711,328.991394 491.183258,319.408966   C490.842804,317.552399 490.592712,315.768646 490.183197,314.022278   C486.960144,300.276367 483.498230,286.582092 480.551239,272.777710   C479.095734,265.959717 478.611511,258.937012 477.614502,252.017517   C476.987549,247.665985 474.929138,245.518036 470.085022,246.697617   C465.571991,247.796600 460.854858,248.050095 456.332458,249.119385   C433.223297,254.583481 412.057404,263.575439 396.765442,282.851807   C395.787628,284.084442 395.265015,285.678223 394.530640,287.103973   C393.852417,286.538574 393.174194,285.973175 392.496002,285.407776   C394.699615,279.789673 396.903229,274.171570 399.128906,268.497192   C397.060486,267.078064 395.309723,265.824829 393.508453,264.648987   C372.895874,251.193390 358.047211,232.695923 346.494751,211.242157   C343.878387,206.383377 343.229523,201.815567 345.376495,196.543930   C352.453369,179.167542 359.233307,161.670380 366.204956,144.250671   C366.642792,143.156708 367.693207,141.565231 368.547882,141.506607   C372.717133,141.220673 376.916779,141.377213 381.932068,141.377213   C380.766724,144.699707 380.191833,146.582413 379.455597,148.399734   C372.596161,165.331161 365.649139,182.227631 358.921326,199.211029   C358.239380,200.932449 358.095490,203.581543 358.957336,205.076233   C362.687439,211.545242 366.407288,218.120834 371.010651,223.964615   C380.507996,236.021042 390.732605,247.438004 404.596100,254.841644   C407.802429,256.553925 410.413788,256.401855 413.166443,253.846405   C420.637665,246.910507 429.526917,242.168076 439.343292,239.968414   C453.427307,236.812424 467.686523,234.369720 481.945465,232.088089   C490.770813,230.675919 499.734314,230.127136 509.294769,229.121445   C499.239899,195.651840 489.405243,162.915207 479.482971,129.886963   C405.406250,129.886963 331.649811,129.886963 258.066986,129.886963   C257.754028,129.180389 257.521545,128.888153 257.508301,128.586334   C257.442688,127.089561 257.276520,125.573601 257.432068,124.094498   C258.607147,112.918564 254.970718,103.278046 248.805908,94.104156   C240.458755,81.682701 232.620712,68.918831 224.588669,56.286354   C223.770584,54.999714 223.119400,53.606960 221.993484,51.530880   C224.777557,51.968521 226.584091,52.178047 228.358551,52.543472   C240.087219,54.958866 251.827194,57.325062 263.522125,59.895428   C267.095612,60.680820 269.216919,60.012955 270.897217,56.419216   C276.032562,45.436150 281.520142,34.617004 286.931061,23.764174   C288.156158,21.306988 289.625214,18.971441 291.053955,16.452942   C293.226410,17.446096 294.889832,18.172419 296.524170,18.959213   C307.148346,24.073965 317.813629,29.106707 328.364563,34.368637   C333.096954,36.728771 336.318207,36.209602 339.785095,31.707624   C347.862030,21.219158 356.556030,11.205843 365.000000,1.000008  M462.287323,335.840912   C461.128052,335.717621 459.971558,335.544098 458.809021,335.479004   C450.367615,335.006317 450.416809,335.035889 446.861572,342.826965   C443.012360,351.262299 439.058167,359.649658 434.863068,368.674683   C397.314148,338.812775 360.356262,309.420959 323.187866,279.861664   C322.439880,281.910431 321.701782,283.750610 321.092529,285.632507   C318.465302,293.748199 318.492554,293.735931 325.004578,298.988434   C358.957611,326.374268 392.901764,353.771088 426.853363,381.158722   C430.791290,384.335327 434.755768,387.479034 439.020203,390.887604   C441.195526,386.476013 443.122955,382.640198 444.986755,378.773682   C451.186768,365.911499 457.412872,353.061157 463.461639,340.128021   C463.972382,339.035919 463.237183,337.361084 462.287323,335.840912  M332.624969,661.884766   C303.391815,638.337463 274.158630,614.790222 244.531967,590.925964   C235.706238,609.590759 227.245880,627.482849 218.706543,645.542053   C232.174103,648.679321 233.045883,648.212524 238.224640,636.839355   C241.699554,629.208008 245.350784,621.656982 249.034622,613.833130   C251.255234,615.474548 252.891998,616.614380 254.453705,617.849182   C278.337891,636.732971 302.220642,655.618591 326.085052,674.527344   C335.996582,682.380676 345.837463,690.323364 355.765747,698.155273   C359.358337,700.989319 360.930328,700.435547 362.953613,696.329834   C364.955414,692.267578 364.072083,688.927612 360.792572,686.089966   C351.609131,678.143738 342.393951,670.234131 332.624969,661.884766  M584.500244,548.813843   C572.371460,549.180542 560.242126,549.532593 548.114075,549.921265   C543.325562,550.074707 541.980347,553.197021 541.975586,557.322998   C541.970886,561.435181 544.091675,563.300537 548.197021,563.297058   C569.978516,563.278625 591.760132,563.301819 613.541504,563.363342   C617.636047,563.374939 620.278748,561.973206 620.436096,557.456177   C620.602722,552.672668 618.675659,550.216187 613.401794,549.889893   C604.114685,549.315186 594.802246,549.150696 584.500244,548.813843  M63.705578,426.842133   C66.318230,428.532776 68.889328,431.613495 71.550133,431.692993   C91.834953,432.299316 112.147163,432.771759 132.429916,432.328461   C142.289215,432.112976 143.598206,429.092987 140.781403,418.994446   C117.387497,418.994446 93.913826,419.090088 70.442055,418.921356   C65.148773,418.883331 63.141689,421.118439 63.705578,426.842133  M602.456299,466.030640   C587.164124,466.458344 571.870728,466.846924 556.580750,467.341187   C552.726196,467.465790 549.648560,468.854370 549.757751,473.466217   C549.856384,477.636719 552.152649,480.137207 556.264587,480.145935   C576.020996,480.187805 595.778870,480.137878 615.533630,479.905853   C619.718628,479.856689 620.319763,476.282166 620.363525,473.010468   C620.407349,469.742737 619.311829,467.093781 615.377808,466.856781   C611.395630,466.616882 607.417480,466.309326 602.456299,466.030640  M94.499939,500.990936   C86.365273,501.267609 78.225838,501.449402 70.097786,501.857635   C65.452690,502.090973 63.327065,504.876953 63.412582,509.452850   C63.503006,514.291382 66.972488,515.116516 70.628891,515.108948   C88.914993,515.071045 107.201042,514.898987 125.486206,514.694275   C127.118896,514.675964 129.178421,514.588074 130.274292,513.643921   C131.976639,512.177368 133.956726,509.993317 134.053833,508.026215   C134.134232,506.397644 131.959442,504.177521 130.235504,503.083008   C128.690292,502.101929 126.406075,502.093018 124.432976,502.010193   C114.791359,501.605408 105.144760,501.319489 94.499939,500.990936  M608.144409,522.640564   C592.855774,522.448547 577.567139,522.129944 562.278625,522.139221   C557.496704,522.142151 552.631531,522.659485 547.979614,523.713867   C546.376465,524.077148 544.078491,526.960693 544.279907,528.384338   C544.578308,530.494141 546.443848,532.958801 548.345642,534.098511   C550.145569,535.177185 552.851624,534.932678 555.160400,534.941345   C566.296997,534.983154 577.433960,534.903259 588.570801,534.887268   C598.822510,534.872498 609.074158,534.884094 619.359985,534.884094   C619.359985,530.158142 619.359985,526.613770 619.359985,522.644836   C615.702637,522.644836 612.389587,522.644836 608.144409,522.640564  M132.825546,447.356903   C113.174187,447.312653 93.522820,447.252045 73.871460,447.253845   C72.221886,447.253998 70.571701,447.668427 68.922935,447.898529   C65.922333,448.317261 63.320255,449.175507 63.331181,452.942902   C63.342525,456.855377 65.535240,458.586792 69.206993,458.814636   C72.864136,459.041565 76.523819,459.420837 80.181587,459.411743   C97.984215,459.367401 115.787758,459.293335 133.587860,459.023804   C136.529480,458.979279 139.865555,458.277405 139.972107,454.199677   C140.080933,450.035309 137.980438,447.671875 132.825546,447.356903  M125.463341,486.187775   C128.706604,486.187775 131.949875,486.187775 135.214462,486.187775   C135.214462,482.036163 135.214462,478.595490 135.214462,474.250000   C113.903030,474.250000 92.814407,474.234955 71.725914,474.282440   C70.251160,474.285767 68.763191,474.689484 67.306198,475.017334   C64.201820,475.715881 63.056263,477.539795 63.419655,480.825348   C64.018433,486.238983 68.171944,485.802582 71.607582,485.850433   C89.227402,486.095917 106.850594,486.099640 125.463341,486.187775  M611.448547,507.344879   C614.056152,507.344879 616.663757,507.344879 619.358032,507.344879   C619.358032,503.215698 619.358032,499.672546 619.358032,495.236450   C598.892090,495.236450 578.770264,495.210175 558.648743,495.272369   C556.336243,495.279510 554.003235,495.660065 551.719116,496.081207   C548.646240,496.647705 547.375244,498.401550 547.594238,501.744202   C547.931580,506.891388 551.618042,506.898651 555.054321,506.939972   C573.521667,507.161926 591.990967,507.226166 611.448547,507.344879  M354.172546,491.417267   C353.664856,483.694275 348.103210,477.720123 341.619537,477.933319   C335.693420,478.128174 329.886261,484.244446 329.632294,490.558594   C329.367249,497.148743 333.919922,502.555206 340.367950,503.307556   C347.698792,504.162903 352.739227,500.119751 354.172546,491.417267  M290.814301,430.063202   C286.014557,423.343811 278.612366,421.833405 272.757568,426.378754   C267.609680,430.375275 266.280243,437.286102 269.802368,441.740753   C275.744690,449.256409 282.111115,450.656952 288.064240,445.458252   C292.656494,441.447968 292.860565,436.274902 290.814301,430.063202  M416.485809,547.036072   C416.451691,539.160278 407.097168,531.813232 400.166718,534.219116   C394.032867,536.348450 390.926910,541.547363 392.030975,547.837097   C393.143829,554.176636 398.231232,558.261108 404.642365,558.206604   C411.678894,558.146790 414.153534,553.204773 416.485809,547.036072  z"/>
<path fill="transparent" opacity="1.000000" stroke="none" d=" M364.531372,1.000008   C356.556030,11.205843 347.862030,21.219158 339.785095,31.707624   C336.318207,36.209602 333.096954,36.728771 328.364563,34.368637   C317.813629,29.106707 307.148346,24.073965 296.524170,18.959213   C294.889832,18.172419 293.226410,17.446096 291.053955,16.452942   C289.625214,18.971441 288.156158,21.306988 286.931061,23.764174   C281.520142,34.617004 276.032562,45.436150 270.897217,56.419216   C269.216919,60.012955 267.095612,60.680820 263.522125,59.895428   C251.827194,57.325062 240.087219,54.958866 228.358551,52.543472   C226.584091,52.178047 224.777557,51.968521 221.993484,51.530880   C223.119400,53.606960 223.770584,54.999714 224.588669,56.286354   C232.620712,68.918831 240.458755,81.682701 248.805908,94.104156   C254.970718,103.278046 258.607147,112.918564 257.432068,124.094498   C257.276520,125.573601 257.442688,127.089561 257.508301,128.586334   C257.521545,128.888153 257.754028,129.180389 258.066986,129.886963   C331.649811,129.886963 405.406250,129.886963 479.482971,129.886963   C489.405243,162.915207 499.239899,195.651840 509.294769,229.121445   C499.734314,230.127136 490.770813,230.675919 481.945465,232.088089   C467.686523,234.369720 453.427307,236.812424 439.343292,239.968414   C429.526917,242.168076 420.637665,246.910507 413.166443,253.846405   C410.413788,256.401855 407.802429,256.553925 404.596100,254.841644   C390.732605,247.438004 380.507996,236.021042 371.010651,223.964615   C366.407288,218.120834 362.687439,211.545242 358.957336,205.076233   C358.095490,203.581543 358.239380,200.932449 358.921326,199.211029   C365.649139,182.227631 372.596161,165.331161 379.455597,148.399734   C380.191833,146.582413 380.766724,144.699707 381.932068,141.377213   C376.916779,141.377213 372.717133,141.220673 368.547882,141.506607   C367.693207,141.565231 366.642792,143.156708 366.204956,144.250671   C359.233307,161.670380 352.453369,179.167542 345.376495,196.543930   C343.229523,201.815567 343.878387,206.383377 346.494751,211.242157   C358.047211,232.695923 372.895874,251.193390 393.508453,264.648987   C395.309723,265.824829 397.060486,267.078064 399.128906,268.497192   C396.903229,274.171570 394.699615,279.789673 392.496002,285.407776   C393.174194,285.973175 393.852417,286.538574 394.530640,287.103973   C395.265015,285.678223 395.787628,284.084442 396.765442,282.851807   C412.057404,263.575439 433.223297,254.583481 456.332458,249.119385   C460.854858,248.050095 465.571991,247.796600 470.085022,246.697617   C474.929138,245.518036 476.987549,247.665985 477.614502,252.017517   C478.611511,258.937012 479.095734,265.959717 480.551239,272.777710   C483.498230,286.582092 486.960144,300.276367 490.183197,314.022278   C490.592712,315.768646 490.842804,317.552399 491.183258,319.408966   C416.928711,328.991394 362.008453,303.296967 330.897675,232.123642   C324.251465,247.478394 318.363495,261.631866 312.002533,275.569519   C308.218597,283.860626 304.489044,292.362488 299.351654,299.816071   C282.016724,324.966217 260.623169,330.466858 234.593277,325.502594   C219.411652,322.607178 205.051071,310.297241 204.070358,288.239777   C203.734436,280.684418 203.994583,273.383545 208.342255,266.624207   C220.157959,248.254242 246.491425,244.213928 263.269257,258.422516   C265.393127,260.221161 267.455475,262.092377 270.582031,263.408600   C270.098633,262.006958 269.723511,260.556427 269.115723,259.211029   C258.611023,235.957367 230.599701,229.250656 209.445038,245.053192   C195.684814,255.332077 189.812241,269.374420 190.620667,286.362793   C190.889908,292.020935 191.462616,297.674042 191.462494,303.329468   C191.462448,304.877563 190.285660,307.068024 188.977417,307.874512   C175.549820,316.151825 161.983932,324.204773 147.974747,332.609436   C147.974747,331.138214 147.974747,329.437500 147.974747,327.736786   C147.974747,261.239624 147.989944,194.742432 147.913055,128.245361   C147.910309,125.862350 147.556122,123.169380 146.426559,121.144867   C130.878998,93.278893 115.430977,65.375038 104.209251,35.380684   C103.814384,34.325256 103.144737,33.372635 102.593697,32.354630   C92.975075,59.921989 79.730408,85.607407 65.452141,110.718376   C59.818954,120.625381 57.478855,130.432419 57.532169,141.809280   C57.899242,220.137573 57.725178,298.468384 57.725182,376.798401   C57.725182,378.777588 57.725182,380.756775 57.725182,383.086304   C62.847851,383.086304 67.715851,383.086304 73.008781,383.086304   C73.008781,381.286987 73.008781,379.486237 73.008781,377.685516   C73.008774,295.522339 72.985344,213.359146 73.102600,131.196136   C73.106865,128.205231 74.008873,124.984581 75.312492,122.263916   C83.993401,104.146896 92.896751,86.136444 101.732635,68.093727   C102.154030,67.233246 102.621056,66.395111 102.572868,66.486824   C112.831673,86.411079 123.319611,106.659317 133.622849,127.001106   C134.530396,128.792877 134.456940,131.196381 134.457932,133.315933   C134.496490,215.812408 134.490662,298.308899 134.490662,380.805389   C134.490662,382.779114 134.490662,384.752838 134.490662,386.240753   C144.966232,387.546509 155.159454,388.016602 164.945343,390.261932   C174.747070,392.510895 184.136673,396.548584 193.716949,399.772430   C201.896744,402.524963 205.633835,407.846985 203.282684,416.733215   C203.087799,416.733215 202.506561,416.913757 202.148163,416.707336   C182.598907,405.449249 160.881500,403.500336 139.069519,402.072723   C111.808655,400.288361 84.503044,399.067810 57.285374,396.785461   C39.015430,395.253387 20.898096,392.199341 5.481232,380.875366   C4.858974,380.418274 4.051852,380.212860 2.596089,379.561432   C2.596089,386.814545 2.596089,393.552704 2.596089,401.639923   C18.754023,406.195984 35.632259,410.955139 52.535851,415.721436   C52.535851,427.028870 52.396797,438.821289 52.609554,450.607391   C52.686378,454.863220 53.636581,459.100403 54.130077,463.352814   C54.371555,465.433594 54.791756,467.561462 54.583797,469.612518   C54.145039,473.939941 52.944183,478.215607 52.780720,482.539917   C52.467319,490.830841 52.464684,499.147003 52.727039,507.440247   C52.849449,511.309662 54.283577,515.140808 54.373974,519.006775   C54.431816,521.480530 53.829071,524.599426 52.297710,526.369568   C46.246025,533.364624 40.887119,540.543518 38.646626,549.802979   C33.795834,569.850159 44.012798,592.277283 62.742836,600.750549   C66.951981,602.654663 72.083061,602.584961 76.812752,603.263367   C97.647095,606.251465 112.099731,597.091858 122.046661,579.397339   C122.691025,578.251099 123.524017,577.210876 125.645828,574.108826   C146.117569,595.923584 166.167862,617.289246 186.218170,638.654907   C186.917816,638.363098 187.617462,638.071350 188.317108,637.779602   C204.872360,602.747375 221.427628,567.715088 238.456116,531.681519   C289.362976,573.517395 339.634552,614.831177 390.224457,656.406555   C386.914398,659.108582 383.874207,661.590332 380.458099,664.378906   C334.567505,626.585999 288.734833,588.840820 242.593719,550.841614   C233.980209,569.252563 225.520584,587.421875 216.982376,605.554199   C211.179779,617.877075 205.147568,630.093445 199.483688,642.478882   C197.985260,645.755615 195.819641,647.422180 192.482590,647.957214   C186.276062,648.952087 180.066956,649.930908 173.029587,651.048096   C181.193573,679.507935 193.071381,706.641052 192.008026,736.541016   C180.139160,738.144775 168.648376,739.697388 156.457016,741.344727   C157.240723,744.171326 157.797348,746.337952 158.441437,748.478210   C168.733704,782.678284 179.567245,816.727478 189.132767,851.129395   C194.588058,870.749146 193.684097,890.549255 185.565826,909.809753   C179.571762,924.030640 174.502487,938.641968 169.067322,953.096680   C168.440903,954.762634 168.110794,956.540039 167.334244,959.406799   C173.109863,957.301086 178.035355,955.646973 182.850601,953.717651   C190.710724,950.568481 198.561157,947.378723 206.286316,943.917297   C209.289124,942.571899 211.036118,943.144592 212.971542,945.668518   C220.875015,955.975220 229.047211,966.076782 236.897858,976.422791   C239.324524,979.620850 241.290359,979.967346 244.520142,977.551086   C254.779266,969.875854 265.326019,962.582458 275.516876,954.820190   C278.800659,952.318970 280.975372,952.492310 284.025116,955.046997   C294.238495,963.602539 304.663147,971.905945 315.003418,980.652954   C210.360931,981.000000 105.721855,981.000000 1.041390,981.000000   C1.041390,654.447021 1.041390,327.894104 1.041390,1.000000   C122.020683,1.000000 243.041687,1.000000 364.531372,1.000008  M109.511528,246.500610   C109.464073,229.170044 109.558510,211.837616 109.332191,194.509384   C109.066765,174.188065 108.542313,153.869949 108.084465,133.551468   C107.974884,128.688553 106.601715,124.292473 103.006149,120.719635   C98.334824,125.455933 97.272820,131.116440 97.081604,137.033066   C96.726379,148.024612 96.222977,159.018784 96.203636,170.012604   C96.079903,240.335312 96.071106,310.658203 96.024635,380.981049   C96.023766,382.291931 96.024529,383.602783 96.024529,385.101654   C100.588318,385.101654 104.844330,385.101654 109.514641,385.101654   C109.514641,339.065826 109.514641,293.283234 109.511528,246.500610  M237.106827,185.572586   C231.943680,198.560989 226.780518,211.549393 221.309097,225.313232   C225.672546,224.729996 228.931976,224.165024 232.215683,223.891464   C235.553757,223.613403 237.259277,222.044037 238.539658,218.834030   C247.083679,197.413498 255.902283,176.102600 264.585541,154.737335   C266.180969,150.811783 267.565369,146.800476 269.055054,142.807693   C258.565704,139.605331 255.591293,140.946609 251.672821,150.366379   C246.893387,161.855850 242.162445,173.365494 237.106827,185.572586  M281.622742,205.166382   C290.152161,184.027496 298.681580,162.888626 307.385529,141.317139   C303.757233,141.317139 300.903656,141.582336 298.119873,141.254471   C294.028198,140.772568 292.085052,142.313065 290.533203,146.222534   C282.275360,167.025421 273.658081,187.685547 265.191345,208.405746   C264.589539,209.878525 263.696564,212.718185 263.784180,212.752365   C273.900116,216.699219 277.674713,215.091293 281.622742,205.166382  M341.197021,149.782288   C342.101471,147.349548 343.005890,144.916824 343.921234,142.454773   C333.383972,139.728287 330.002991,141.242477 326.125031,150.652725   C319.797943,166.006027 313.606354,181.415268 307.389404,196.813736   C306.731232,198.443954 306.285675,200.160034 305.739258,201.843170   C315.445648,204.614716 319.384583,203.002975 323.040588,194.318268   C329.160706,179.780060 335.018066,165.131241 341.197021,149.782288  M456.792175,163.792236   C459.684845,162.452332 462.577515,161.112427 465.874695,159.585144   C457.897858,151.034103 449.855347,149.405914 442.216797,154.182388   C440.737671,155.107285 438.990326,157.185745 439.088074,158.614319   C439.190247,160.106720 441.184662,162.397003 442.676971,162.691620   C447.008759,163.546738 451.503479,163.576447 456.792175,163.792236  z"/>
<path fill="transparent" opacity="1.000000" stroke="none" d=" M318.468628,981.000000   C327.039276,970.374939 336.219513,959.864746 345.030792,949.053833   C347.627411,945.867859 350.022614,945.124207 353.549103,946.848633   C360.111328,950.057373 366.712982,953.185425 373.290649,956.362793   C377.029510,958.168762 380.690125,960.152100 384.497437,961.797668   C391.738281,964.927368 394.588837,963.913940 398.091858,956.865784   C403.118713,946.751587 408.165283,936.639099 412.823364,926.353699   C414.696930,922.216797 416.993744,921.286682 421.297546,922.292603   C432.630524,924.941650 444.062897,927.167053 455.463593,929.523010   C457.339111,929.910522 459.254547,930.104736 462.163727,930.539673   C459.868347,926.692810 458.176178,923.687134 456.324249,920.783264   C449.258118,909.703369 442.339508,898.521667 434.979858,887.639038   C428.989929,878.781860 425.427917,869.437683 426.545593,858.600891   C426.715118,856.957214 426.527863,855.274109 426.461639,853.611084   C426.449524,853.307434 426.224182,853.012207 425.870880,852.179565   C424.153809,852.179565 422.212738,852.179565 420.271698,852.179565   C350.105530,852.179565 279.939240,852.139099 209.773376,852.283569   C205.723816,852.291931 204.110321,851.203003 202.968353,847.267212   C194.357910,817.590881 185.465698,787.996399 176.678925,758.371155   C176.209702,756.789185 175.897430,755.160645 175.331299,752.799866   C184.151825,751.848755 192.782974,751.345398 201.256744,749.911743   C216.962112,747.254639 232.821899,744.946289 248.127747,740.719543   C256.316345,738.458191 263.680176,732.804260 271.019348,728.066650   C274.079834,726.090942 276.366608,725.380249 279.595947,727.070190   C291.384247,733.239197 300.388428,742.678528 308.558502,752.749146   C314.480560,760.048767 318.953094,768.513306 324.246429,776.340393   C326.056366,779.016724 325.917633,781.335510 324.726959,784.191833   C317.634430,801.206238 310.696960,818.285217 303.714081,835.345276   C303.159119,836.701172 302.654388,838.077576 302.126801,839.443115   C302.644745,839.670776 302.914276,839.875244 303.200958,839.902954   C316.063385,841.149231 316.082672,841.155334 321.069672,829.170898   C327.450256,813.837402 333.708618,798.452148 340.234009,783.180786   C341.474823,780.276917 341.200958,778.079895 339.883331,775.339844   C327.667847,749.936584 309.689545,729.662781 286.100281,714.306213   C285.415955,713.860718 284.777191,713.345276 283.963440,712.750000   C286.532654,707.533325 289.042572,702.437073 291.552521,697.340820   C291.235291,697.042053 290.918060,696.743286 290.600830,696.444580   C267.709351,720.974915 240.299240,735.362061 205.624359,735.188477   C206.506592,709.884888 198.655029,686.496887 192.072174,661.923279   C226.461334,658.804626 258.945831,659.591492 289.282593,676.116638   C319.411621,692.528503 338.683044,718.459900 353.203339,749.675903   C360.468689,732.968506 367.237427,717.207031 374.171387,701.518677   C379.939606,688.467896 386.994598,676.174438 398.393524,667.179871   C416.730652,652.710449 437.036865,650.970032 458.023804,660.112366   C471.652588,666.049316 478.755707,677.514648 479.903687,692.284790   C481.022491,706.679749 476.870331,718.885376 464.126465,727.198853   C455.402985,732.889587 445.837555,731.287537 436.472778,730.504883   C427.273834,729.736023 419.833344,725.204468 414.541016,717.169067   C414.118652,717.491028 413.696320,717.812988 413.273956,718.134949   C413.721405,719.508545 414.073364,720.922302 414.630554,722.249817   C424.402924,745.534485 452.652924,752.760864 474.101440,737.479797   C489.673279,726.385620 498.214386,700.752319 492.169434,682.001099   C490.614655,677.178223 491.755035,675.205688 496.132477,672.806030   C509.500153,665.477905 522.491272,657.462830 536.025085,649.481323   C536.025085,651.023682 536.025085,652.755676 536.025085,654.487671   C536.025146,720.153870 536.067444,785.820129 535.938782,851.486084   C535.929260,856.342529 537.236755,860.374329 539.427063,864.632019   C551.579163,888.253723 563.524170,911.983887 575.300781,935.795288   C577.620117,940.484863 578.890991,945.693054 580.714905,950.858826   C581.096497,950.336731 581.645630,949.883667 581.808960,949.319031   C589.504578,922.730286 602.868286,898.708557 616.559082,874.992676   C623.729004,862.572571 626.634094,850.225037 626.535828,835.905762   C626.005127,758.576599 626.284424,681.241882 626.284424,603.909119   C626.284424,602.433289 626.284424,600.957458 626.284424,599.005615   C621.610046,598.587402 617.202271,598.193115 612.117737,597.738220   C611.979675,600.069824 611.773132,601.988159 611.765869,603.907349   C611.498047,675.071228 611.246460,746.235107 610.999939,817.399048   C610.975159,824.565613 610.512573,831.772888 611.109192,838.889465   C612.018616,849.737671 609.159668,859.205688 604.051941,868.763855   C596.157288,883.537537 589.483154,898.963379 582.287964,914.111084   C581.878723,914.972473 581.439026,915.819397 581.401917,915.893921   C571.165894,895.847961 560.745117,875.575378 550.523010,855.203125   C549.549316,853.262634 549.549500,850.699036 549.548218,848.424561   C549.502014,766.091797 549.509460,683.759033 549.509460,601.426270   C549.509460,599.448242 549.509399,597.470215 549.509399,595.585205   C540.795532,594.711243 532.212646,594.745239 524.094055,592.820801   C512.682434,590.115723 501.594208,586.021973 490.408112,582.397339   C482.272949,579.761292 478.264008,574.494263 480.854523,565.023682   C482.037170,565.547058 483.470520,566.062744 484.791473,566.784119   C499.745667,574.950623 516.081116,577.810913 532.772949,578.953979   C564.016357,581.093506 595.288208,582.822510 626.526794,585.026184   C641.038086,586.049866 655.120850,589.451355 668.504089,595.231262   C672.685791,597.037231 676.454712,599.799133 681.285095,602.635742   C681.285095,595.244751 681.285095,588.558167 681.285095,580.421387   C665.273926,575.902405 648.403992,571.141113 630.335449,566.041504   C630.335449,556.528259 630.192261,546.221069 630.365356,535.919067   C630.723450,514.608215 631.308105,493.301086 631.631165,471.989868   C631.670105,469.420166 631.365784,466.359619 630.001160,464.357849   C627.357971,460.480774 628.716370,457.910889 631.485107,455.267090   C638.242249,448.814789 643.218628,441.344604 645.466980,432.115417   C650.657227,410.809540 637.216980,385.474762 616.229980,379.375549   C602.388062,375.352814 578.014221,376.972137 566.486450,395.774750   C564.404846,399.169952 562.119507,402.440186 559.750854,406.037506   C538.744446,385.262848 517.882019,364.630585 496.287292,343.274109   C479.122955,379.350525 462.541168,414.202484 445.428284,450.170746   C394.270935,408.177246 344.129883,367.018036 293.734375,325.649963   C297.138428,322.913513 300.223572,320.433411 303.567810,317.745056   C349.403290,355.431763 395.177856,393.068390 441.437439,431.103790   C443.682831,426.365021 445.762756,421.996002 447.825470,417.618835   C460.004578,391.773743 472.245789,365.957520 484.279724,340.045013   C485.943604,336.462158 488.279388,334.593628 492.005646,333.981964   C498.214142,332.962830 504.407715,331.852600 511.323151,330.657013   C509.978241,326.415894 508.925659,322.652008 507.598938,318.987457   C500.792816,300.188782 495.182251,281.101807 492.483612,261.212372   C490.430634,246.081497 490.316956,245.990616 505.353577,243.640961   C512.568848,242.513489 519.800964,241.493484 527.479126,240.357697   C527.086121,238.657761 526.849304,237.274246 526.446045,235.941086   C515.865295,200.961884 504.714355,166.142288 494.889862,130.952286   C489.421478,111.365471 490.232330,91.512917 498.291016,72.241997   C505.261200,55.573952 511.545258,38.618980 518.511108,20.823790   C508.946106,24.907326 500.234222,28.643625 491.507324,32.344543   C487.685333,33.965385 483.726990,35.302505 480.023438,37.154236   C476.238983,39.046417 473.277435,38.278618 470.733276,35.216167   C465.201538,28.557394 459.758820,21.824656 454.223877,15.168563   C451.351837,11.714803 448.337128,8.380065 445.431702,4.953517   C443.307556,2.448348 441.408234,2.415558 438.693939,4.498113   C429.185547,11.793502 419.278137,18.578522 409.918579,26.053587   C406.097290,29.105505 403.214905,28.714062 399.862061,26.081234   C389.516083,17.957062 379.175507,9.825949 368.916443,1.348767   C473.639069,1.000000 578.278137,1.000000 682.958618,1.000000   C682.958618,327.552948 682.958618,654.105896 682.958618,981.000000   C561.645996,981.000000 440.291656,981.000000 318.468628,981.000000  M587.931885,765.500000   C587.931885,709.395691 587.931885,653.291321 587.931885,597.085083   C583.277405,597.085083 579.050171,597.085083 574.436401,597.085083   C574.436401,598.840149 574.435364,600.311768 574.436523,601.783447   C574.486511,664.598267 574.437561,727.413391 574.645630,790.227722   C574.710144,809.711060 575.269104,829.200500 576.069214,848.667908   C576.250671,853.083862 578.376953,857.419800 579.808289,862.503784   C585.919067,855.916992 586.911987,849.062988 587.006042,841.964905   C587.339539,816.810242 587.626465,791.655029 587.931885,765.500000  M437.883667,818.393555   C446.103058,798.009399 454.322449,777.625305 462.649567,756.974060   C452.204102,756.267700 446.397064,760.574707 442.919952,769.466492   C434.224976,791.701538 425.054077,813.750427 416.105377,835.886597   C415.641174,837.034912 415.467468,838.300659 414.979401,840.213745   C417.945190,840.213745 420.405151,840.043945 422.833160,840.250183   C427.424744,840.640259 430.001099,838.940613 431.393097,834.289062   C432.953461,829.075073 435.467957,824.146606 437.883667,818.393555  M379.913086,832.392639   C378.857666,835.062561 377.802277,837.732483 376.577576,840.830750   C380.294250,840.830750 383.157288,840.538269 385.935425,840.899292   C390.113678,841.442139 391.935944,839.688721 393.455719,835.860352   C401.655975,815.203857 410.182007,794.676636 418.574005,774.096069   C419.235535,772.473755 419.731598,770.783875 420.574493,768.344177   C417.291412,768.135010 414.695923,768.121033 412.145935,767.773376   C407.785400,767.178833 405.545380,768.590942 403.813965,773.066650   C396.215088,792.709656 388.069550,812.141235 379.913086,832.392639  M352.317230,807.803772   C348.157562,818.350464 343.997894,828.897156 339.567383,840.130615   C343.437836,840.130615 346.396790,839.916992 349.311920,840.183044   C353.244202,840.542114 355.063660,838.908325 356.471558,835.212708   C360.832764,823.765442 365.695587,812.510010 370.309723,801.158142   C373.093536,794.309448 375.777069,787.420044 378.505096,780.550293   C370.135986,777.364197 364.290344,779.628357 361.131012,786.966919   C358.249695,793.659729 355.506073,800.411743 352.317230,807.803772  M236.080063,830.060181   C238.211792,829.223999 240.590881,828.746033 242.425446,827.479370   C246.682480,824.540344 246.369278,821.627380 241.537048,819.625854   C235.489655,817.121094 229.221786,817.014893 223.153320,819.584412   C221.655701,820.218567 219.983246,821.766174 219.599976,823.213806   C219.365845,824.098206 221.212189,826.242615 222.514420,826.693359   C226.649048,828.124329 230.966934,829.025818 236.080063,830.060181  z"/>
<path fill="#e0e4cc" opacity="1.000000" stroke="none" d=" M462.684082,335.898926   C463.237183,337.361084 463.972382,339.035919 463.461639,340.128021   C457.412872,353.061157 451.186768,365.911499 444.986755,378.773682   C443.122955,382.640198 441.195526,386.476013 439.020203,390.887604   C434.755768,387.479034 430.791290,384.335327 426.853363,381.158722   C392.901764,353.771088 358.957611,326.374268 325.004578,298.988434   C318.492554,293.735931 318.465302,293.748199 321.092529,285.632507   C321.701782,283.750610 322.439880,281.910431 323.187866,279.861664   C360.356262,309.420959 397.314148,338.812775 434.863068,368.674683   C439.058167,359.649658 443.012360,351.262299 446.861572,342.826965   C450.416809,335.035889 450.367615,335.006317 458.809021,335.479004   C459.971558,335.544098 461.128052,335.717621 462.684082,335.898926  z"/>
<path fill="#e0e4cc" opacity="1.000000" stroke="none" d=" M332.908142,662.097412   C342.393951,670.234131 351.609131,678.143738 360.792572,686.089966   C364.072083,688.927612 364.955414,692.267578 362.953613,696.329834   C360.930328,700.435547 359.358337,700.989319 355.765747,698.155273   C345.837463,690.323364 335.996582,682.380676 326.085052,674.527344   C302.220642,655.618591 278.337891,636.732971 254.453705,617.849182   C252.891998,616.614380 251.255234,615.474548 249.034622,613.833130   C245.350784,621.656982 241.699554,629.208008 238.224640,636.839355   C233.045883,648.212524 232.174103,648.679321 218.706543,645.542053   C227.245880,627.482849 235.706238,609.590759 244.531967,590.925964   C274.158630,614.790222 303.391815,638.337463 332.908142,662.097412  z"/>
<path fill="#e0e4cc" opacity="1.000000" stroke="none" d=" M585.000305,548.814209   C594.802246,549.150696 604.114685,549.315186 613.401794,549.889893   C618.675659,550.216187 620.602722,552.672668 620.436096,557.456177   C620.278748,561.973206 617.636047,563.374939 613.541504,563.363342   C591.760132,563.301819 569.978516,563.278625 548.197021,563.297058   C544.091675,563.300537 541.970886,561.435181 541.975586,557.322998   C541.980347,553.197021 543.325562,550.074707 548.114075,549.921265   C560.242126,549.532593 572.371460,549.180542 585.000305,548.814209  z"/>
<path fill="#e0e4cc" opacity="1.000000" stroke="none" d=" M63.611877,426.472229   C63.141689,421.118439 65.148773,418.883331 70.442055,418.921356   C93.913826,419.090088 117.387497,418.994446 140.781403,418.994446   C143.598206,429.092987 142.289215,432.112976 132.429916,432.328461   C112.147163,432.771759 91.834953,432.299316 71.550133,431.692993   C68.889328,431.613495 66.318230,428.532776 63.611877,426.472229  z"/>
<path fill="#e0e4cc" opacity="1.000000" stroke="none" d=" M602.946899,466.031036   C607.417480,466.309326 611.395630,466.616882 615.377808,466.856781   C619.311829,467.093781 620.407349,469.742737 620.363525,473.010468   C620.319763,476.282166 619.718628,479.856689 615.533630,479.905853   C595.778870,480.137878 576.020996,480.187805 556.264587,480.145935   C552.152649,480.137207 549.856384,477.636719 549.757751,473.466217   C549.648560,468.854370 552.726196,467.465790 556.580750,467.341187   C571.870728,466.846924 587.164124,466.458344 602.946899,466.031036  z"/>
<path fill="#e0e4cc" opacity="1.000000" stroke="none" d=" M94.999924,500.991241   C105.144760,501.319489 114.791359,501.605408 124.432976,502.010193   C126.406075,502.093018 128.690292,502.101929 130.235504,503.083008   C131.959442,504.177521 134.134232,506.397644 134.053833,508.026215   C133.956726,509.993317 131.976639,512.177368 130.274292,513.643921   C129.178421,514.588074 127.118896,514.675964 125.486206,514.694275   C107.201042,514.898987 88.914993,515.071045 70.628891,515.108948   C66.972488,515.116516 63.503006,514.291382 63.412582,509.452850   C63.327065,504.876953 65.452690,502.090973 70.097786,501.857635   C78.225838,501.449402 86.365273,501.267609 94.999924,500.991241  z"/>
<path fill="#e0e4cc" opacity="1.000000" stroke="none" d=" M608.610474,522.642700   C612.389587,522.644836 615.702637,522.644836 619.359985,522.644836   C619.359985,526.613770 619.359985,530.158142 619.359985,534.884094   C609.074158,534.884094 598.822510,534.872498 588.570801,534.887268   C577.433960,534.903259 566.296997,534.983154 555.160400,534.941345   C552.851624,534.932678 550.145569,535.177185 548.345642,534.098511   C546.443848,532.958801 544.578308,530.494141 544.279907,528.384338   C544.078491,526.960693 546.376465,524.077148 547.979614,523.713867   C552.631531,522.659485 557.496704,522.142151 562.278625,522.139221   C577.567139,522.129944 592.855774,522.448547 608.610474,522.642700  z"/>
<path fill="#e0e4cc" opacity="1.000000" stroke="none" d=" M133.253082,447.438232   C137.980438,447.671875 140.080933,450.035309 139.972107,454.199677   C139.865555,458.277405 136.529480,458.979279 133.587860,459.023804   C115.787758,459.293335 97.984215,459.367401 80.181587,459.411743   C76.523819,459.420837 72.864136,459.041565 69.206993,458.814636   C65.535240,458.586792 63.342525,456.855377 63.331181,452.942902   C63.320255,449.175507 65.922333,448.317261 68.922935,447.898529   C70.571701,447.668427 72.221886,447.253998 73.871460,447.253845   C93.522820,447.252045 113.174187,447.312653 133.253082,447.438232  z"/>
<path fill="#e0e4cc" opacity="1.000000" stroke="none" d=" M124.967972,486.187805   C106.850594,486.099640 89.227402,486.095917 71.607582,485.850433   C68.171944,485.802582 64.018433,486.238983 63.419655,480.825348   C63.056263,477.539795 64.201820,475.715881 67.306198,475.017334   C68.763191,474.689484 70.251160,474.285767 71.725914,474.282440   C92.814407,474.234955 113.903030,474.250000 135.214462,474.250000   C135.214462,478.595490 135.214462,482.036163 135.214462,486.187775   C131.949875,486.187775 128.706604,486.187775 124.967972,486.187805  z"/>
<path fill="#e0e4cc" opacity="1.000000" stroke="none" d=" M610.954102,507.344879   C591.990967,507.226166 573.521667,507.161926 555.054321,506.939972   C551.618042,506.898651 547.931580,506.891388 547.594238,501.744202   C547.375244,498.401550 548.646240,496.647705 551.719116,496.081207   C554.003235,495.660065 556.336243,495.279510 558.648743,495.272369   C578.770264,495.210175 598.892090,495.236450 619.358032,495.236450   C619.358032,499.672546 619.358032,503.215698 619.358032,507.344879   C616.663757,507.344879 614.056152,507.344879 610.954102,507.344879  z"/>
<path fill="#e0e4cc" opacity="1.000000" stroke="none" d=" M354.152649,491.841736   C352.739227,500.119751 347.698792,504.162903 340.367950,503.307556   C333.919922,502.555206 329.367249,497.148743 329.632294,490.558594   C329.886261,484.244446 335.693420,478.128174 341.619537,477.933319   C348.103210,477.720123 353.664856,483.694275 354.152649,491.841736  z"/>
<path fill="#e0e4cc" opacity="1.000000" stroke="none" d=" M290.940186,430.441406   C292.860565,436.274902 292.656494,441.447968 288.064240,445.458252   C282.111115,450.656952 275.744690,449.256409 269.802368,441.740753   C266.280243,437.286102 267.609680,430.375275 272.757568,426.378754   C278.612366,421.833405 286.014557,423.343811 290.940186,430.441406  z"/>
<path fill="#e0e4cc" opacity="1.000000" stroke="none" d=" M416.360962,547.391113   C414.153534,553.204773 411.678894,558.146790 404.642365,558.206604   C398.231232,558.261108 393.143829,554.176636 392.030975,547.837097   C390.926910,541.547363 394.032867,536.348450 400.166718,534.219116   C407.097168,531.813232 416.451691,539.160278 416.360962,547.391113  z"/>
<path fill="#4d4d4d" opacity="1.000000" stroke="none" d=" M109.513084,247.000610   C109.514641,293.283234 109.514641,339.065826 109.514641,385.101654   C104.844330,385.101654 100.588318,385.101654 96.024529,385.101654   C96.024529,383.602783 96.023766,382.291931 96.024635,380.981049   C96.071106,310.658203 96.079903,240.335312 96.203636,170.012604   C96.222977,159.018784 96.726379,148.024612 97.081604,137.033066   C97.272820,131.116440 98.334824,125.455933 103.006149,120.719635   C106.601715,124.292473 107.974884,128.688553 108.084465,133.551468   C108.542313,153.869949 109.066765,174.188065 109.332191,194.509384   C109.558510,211.837616 109.464073,229.170044 109.513084,247.000610  z"/>
<path fill="#050505" opacity="1.000000" stroke="none" d=" M237.258667,185.219513   C242.162445,173.365494 246.893387,161.855850 251.672821,150.366379   C255.591293,140.946609 258.565704,139.605331 269.055054,142.807693   C267.565369,146.800476 266.180969,150.811783 264.585541,154.737335   C255.902283,176.102600 247.083679,197.413498 238.539658,218.834030   C237.259277,222.044037 235.553757,223.613403 232.215683,223.891464   C228.931976,224.165024 225.672546,224.729996 221.309097,225.313232   C226.780518,211.549393 231.943680,198.560989 237.258667,185.219513  z"/>
<path fill="#060606" opacity="1.000000" stroke="none" d=" M281.437134,205.502533   C277.674713,215.091293 273.900116,216.699219 263.784180,212.752365   C263.696564,212.718185 264.589539,209.878525 265.191345,208.405746   C273.658081,187.685547 282.275360,167.025421 290.533203,146.222534   C292.085052,142.313065 294.028198,140.772568 298.119873,141.254471   C300.903656,141.582336 303.757233,141.317139 307.385529,141.317139   C298.681580,162.888626 290.152161,184.027496 281.437134,205.502533  z"/>
<path fill="#060606" opacity="1.000000" stroke="none" d=" M341.091522,150.155640   C335.018066,165.131241 329.160706,179.780060 323.040588,194.318268   C319.384583,203.002975 315.445648,204.614716 305.739258,201.843170   C306.285675,200.160034 306.731232,198.443954 307.389404,196.813736   C313.606354,181.415268 319.797943,166.006027 326.125031,150.652725   C330.002991,141.242477 333.383972,139.728287 343.921234,142.454773   C343.005890,144.916824 342.101471,147.349548 341.091522,150.155640  z"/>
<path fill="#060606" opacity="1.000000" stroke="none" d=" M456.363220,163.861115   C451.503479,163.576447 447.008759,163.546738 442.676971,162.691620   C441.184662,162.397003 439.190247,160.106720 439.088074,158.614319   C438.990326,157.185745 440.737671,155.107285 442.216797,154.182388   C449.855347,149.405914 457.897858,151.034103 465.874695,159.585144   C462.577515,161.112427 459.684845,162.452332 456.363220,163.861115  z"/>
<path fill="#080808" opacity="1.000000" stroke="none" d=" M587.931458,766.000000   C587.626465,791.655029 587.339539,816.810242 587.006042,841.964905   C586.911987,849.062988 585.919067,855.916992 579.808289,862.503784   C578.376953,857.419800 576.250671,853.083862 576.069214,848.667908   C575.269104,829.200500 574.710144,809.711060 574.645630,790.227722   C574.437561,727.413391 574.486511,664.598267 574.436523,601.783447   C574.435364,600.311768 574.436401,598.840149 574.436401,597.085083   C579.050171,597.085083 583.277405,597.085083 587.931885,597.085083   C587.931885,653.291321 587.931885,709.395691 587.931458,766.000000  z"/>
<path fill="#050505" opacity="1.000000" stroke="none" d=" M437.725494,818.743713   C435.467957,824.146606 432.953461,829.075073 431.393097,834.289062   C430.001099,838.940613 427.424744,840.640259 422.833160,840.250183   C420.405151,840.043945 417.945190,840.213745 414.979401,840.213745   C415.467468,838.300659 415.641174,837.034912 416.105377,835.886597   C425.054077,813.750427 434.224976,791.701538 442.919952,769.466492   C446.397064,760.574707 452.204102,756.267700 462.649567,756.974060   C454.322449,777.625305 446.103058,798.009399 437.725494,818.743713  z"/>
<path fill="#060606" opacity="1.000000" stroke="none" d=" M380.017639,832.021057   C388.069550,812.141235 396.215088,792.709656 403.813965,773.066650   C405.545380,768.590942 407.785400,767.178833 412.145935,767.773376   C414.695923,768.121033 417.291412,768.135010 420.574493,768.344177   C419.731598,770.783875 419.235535,772.473755 418.574005,774.096069   C410.182007,794.676636 401.655975,815.203857 393.455719,835.860352   C391.935944,839.688721 390.113678,841.442139 385.935425,840.899292   C383.157288,840.538269 380.294250,840.830750 376.577576,840.830750   C377.802277,837.732483 378.857666,835.062561 380.017639,832.021057  z"/>
<path fill="#050505" opacity="1.000000" stroke="none" d=" M352.509521,807.470703   C355.506073,800.411743 358.249695,793.659729 361.131012,786.966919   C364.290344,779.628357 370.135986,777.364197 378.505096,780.550293   C375.777069,787.420044 373.093536,794.309448 370.309723,801.158142   C365.695587,812.510010 360.832764,823.765442 356.471558,835.212708   C355.063660,838.908325 353.244202,840.542114 349.311920,840.183044   C346.396790,839.916992 343.437836,840.130615 339.567383,840.130615   C343.997894,828.897156 348.157562,818.350464 352.509521,807.470703  z"/>
<path fill="#4d4d4d" opacity="1.000000" stroke="none" d=" M235.647018,830.096069   C230.966934,829.025818 226.649048,828.124329 222.514420,826.693359   C221.212189,826.242615 219.365845,824.098206 219.599976,823.213806   C219.983246,821.766174 221.655701,820.218567 223.153320,819.584412   C229.221786,817.014893 235.489655,817.121094 241.537048,819.625854   C246.369278,821.627380 246.682480,824.540344 242.425446,827.479370   C240.590881,828.746033 238.211792,829.223999 235.647018,830.096069  z"/>
</svg>