<svg xmlns="http://www.w3.org/2000/svg" xmlns:xlink="http://www.w3.org/1999/xlink" version="1.1" id="Layer_1" x="0px" y="0px" width="100%" viewBox="0 0 704 976" enable-background="new 0 0 704 976" xml:space="preserve">
<path fill="#363636" opacity="1.000000" stroke="none" d=" M1.000000,246.449982   C30.494387,244.563385 61.953571,261.051208 73.261902,295.012360   C76.692886,305.316254 79.685608,315.694519 86.748459,324.265350   C87.884613,325.644043 88.630745,327.444641 91.234612,328.166748   C93.554665,293.182281 92.372223,258.368958 92.659073,223.733765   C89.844734,222.440704 87.953857,223.915863 86.007690,224.581482   C68.486641,230.573822 49.522919,219.017822 47.002308,200.596924   C46.182392,194.604904 48.334671,189.031250 50.927700,183.813065   C53.037922,179.566437 52.101528,177.556381 47.879604,175.404007   C36.516899,169.611206 30.661808,155.323410 33.840389,142.569443   C36.885551,130.350830 48.423637,121.658134 61.600121,121.660515   C63.099739,121.660789 64.623726,121.517754 66.094505,121.730698   C70.952194,122.434029 73.011429,120.774681 74.029015,115.566162   C76.348976,103.691376 89.942970,92.815277 101.324738,92.687706   C114.725510,92.537506 126.930923,101.882599 130.449860,114.987183   C130.708633,115.950844 131.137070,116.903374 131.199600,117.879463   C131.509109,122.710686 134.081924,123.905159 138.634232,123.366669   C153.317642,121.629807 166.622849,131.119400 169.958771,145.402985   C173.112015,158.904327 164.311127,174.732254 151.008026,179.523727   C150.571564,179.680939 150.219238,180.071762 149.893234,180.306488   C149.176529,182.292648 150.510300,183.596115 151.228333,185.018509   C157.092880,196.635880 155.114349,207.473999 147.252060,217.164856   C139.838486,226.302658 129.599945,228.366013 118.373665,226.729187   C117.716873,226.633423 117.043716,226.519608 116.429764,226.281296   C112.169220,224.627563 111.255157,226.690857 111.207703,230.524124   C111.100571,239.177292 110.542313,247.825500 110.468643,256.478302   C110.328194,272.973846 110.390640,289.471161 110.391609,305.967743   C110.391724,307.776428 110.166183,309.651703 111.344719,311.336426   C113.184975,311.276123 113.576729,309.579651 114.398857,308.486603   C121.079514,299.604370 125.589417,289.611389 129.225769,279.181488   C139.930466,248.478149 161.055756,234.750076 196.191895,229.909500   C198.688293,229.565567 201.994385,229.152588 201.437866,233.618927   C198.523895,257.005554 191.010300,278.014740 170.946289,292.520538   C162.441040,298.669586 152.822021,302.518097 142.743790,304.854156   C136.716339,306.251282 132.499283,309.446503 129.130600,314.157196   C118.516396,328.999817 112.468826,345.537384 111.341553,363.772552   C111.138779,367.052826 109.615288,370.262787 110.733223,373.850983   C113.148972,374.142822 114.119957,372.076538 115.418938,370.821320   C130.274704,356.465698 145.160019,342.172943 161.170273,329.051300   C169.811295,321.969299 177.203720,319.078522 188.564926,325.024902   C207.176254,334.765930 227.605148,339.995422 248.554413,342.973724   C271.559174,346.244263 294.062714,344.611938 316.030121,337.173706   C320.927582,335.515411 324.183655,336.166626 328.045166,339.553680   C358.604797,366.358521 389.043427,393.309326 420.483826,419.090759   C426.508209,424.030853 432.389435,429.181152 439.572021,433.735626   C443.137878,428.766632 446.622742,424.156403 449.850006,419.372406   C467.737762,392.856140 485.574280,366.305237 503.401550,339.748199   C507.968445,332.944946 508.048828,332.788483 513.788757,338.454010   C540.470642,364.789581 567.095154,391.183380 593.697754,417.599091   C599.937866,423.795349 606.012878,430.157990 612.752014,437.045135   C620.828857,425.413513 627.940979,414.195587 637.583618,404.487823   C642.139343,407.847168 645.501648,411.973145 649.135742,415.791138   C651.201965,417.962006 649.127808,419.492828 647.897461,420.882904   C643.030884,426.381561 638.454224,432.095886 634.507629,438.291748   C633.167664,440.395386 631.889221,442.558685 630.809631,444.803833   C627.170593,452.371948 627.810425,453.671844 635.575989,454.063171   C644.620483,454.518890 651.309021,458.738647 654.683105,467.643005   C656.386658,472.138916 656.720703,476.368225 654.244446,480.572205   C651.660217,484.959442 651.563538,489.448517 653.662231,493.964417   C656.078674,499.164001 655.849548,504.277313 653.594543,509.416046   C651.736694,513.649841 651.719788,517.785400 654.102966,521.862366   C656.775574,526.434509 656.341248,531.123657 654.346436,535.768982   C651.987915,541.261292 652.168335,546.423523 654.429871,552.133301   C659.104858,563.936401 649.781494,576.266785 635.896179,577.268616   C632.910645,577.484131 629.899048,577.411194 626.901306,577.361084   C624.367004,577.318787 623.383972,578.439087 623.335754,580.977234   C622.842651,606.923767 627.455078,631.325378 644.443787,652.084351   C648.085022,656.533630 651.940247,660.523071 657.878967,661.863281   C677.883850,666.377930 693.212097,677.605835 704.735840,694.798523   C705.000000,708.354248 705.000000,721.708435 705.000000,735.531372   C693.251160,733.487671 681.565186,730.732666 671.304871,724.083191   C655.271362,713.692383 645.735962,698.639221 640.742126,680.515564   C637.921326,670.278259 631.012451,657.817200 624.617798,652.797180   C624.617798,688.202698 624.617798,723.165405 624.617798,758.099609   C627.735901,758.992493 629.898071,757.312866 632.154907,756.539062   C642.874878,752.863770 651.734375,756.110107 659.585144,763.492615   C667.572693,771.003845 672.270996,780.114380 668.007996,790.789978   C664.548340,799.453857 664.434937,804.523315 673.509521,810.208923   C683.525391,816.484314 685.900391,832.244568 681.105347,843.293457   C675.948669,855.175659 664.158875,861.787231 650.029968,860.051270   C645.499756,859.494690 644.038330,860.393250 642.483154,864.964600   C635.880615,884.371826 623.145203,891.940125 605.114075,887.280457   C593.560425,884.294739 587.260864,874.975830 585.062073,863.888123   C583.951233,858.286377 581.558044,857.721008 577.452393,858.496094   C568.988525,860.094116 562.131226,857.057678 555.902649,851.737061   C538.973755,837.276123 542.719910,811.714966 563.276733,803.087097   C567.024902,801.513916 566.882080,799.964294 565.351807,797.215759   C558.886047,785.602478 560.740479,774.570312 568.599976,764.625793   C576.384338,754.776367 587.352356,753.238098 598.950256,755.408386   C602.973572,756.161194 604.951172,755.703613 604.989441,751.235291   C605.017883,747.916626 605.610535,744.601685 605.619812,741.284180   C605.680847,719.454468 605.651733,697.624512 605.652039,675.794678   C605.652100,674.008057 605.652039,672.221497 605.652039,670.434875   C597.963867,678.136719 592.693909,687.014404 589.237244,696.888306   C585.916138,706.375000 581.888977,715.453857 576.058838,723.686279   C564.681274,739.751770 547.960510,746.519653 529.583984,750.292114   C525.057373,751.221436 520.402832,751.527588 515.817017,752.118958   C513.384033,748.443176 515.340088,744.998047 515.771179,741.736206   C517.175171,731.113342 520.343201,720.978760 525.276184,711.414978   C535.597656,691.404358 553.520386,682.009155 574.184875,676.724365   C579.341797,675.405518 583.413574,673.244080 586.423950,668.909424   C598.633728,651.328613 604.766724,631.758179 605.649536,610.459534   C605.675903,609.824280 605.496765,609.180481 605.369934,608.206726   C602.699951,608.702026 601.324463,610.675110 599.732483,612.225159   C585.287231,626.289795 570.874878,640.404663 554.972107,652.843201   C542.114563,662.899780 542.025879,662.693054 527.278259,656.383179   C510.743469,649.308655 494.143616,642.294495 476.072968,640.163513   C450.121704,637.103088 424.232483,636.443604 398.941101,644.582031   C394.547516,645.995850 391.695465,645.177673 388.273163,642.203735   C353.940308,612.368286 319.473175,582.687073 284.977722,553.039368   C277.658569,546.748779 277.467651,546.844971 271.898071,554.705322   C251.383636,583.657532 231.835663,613.265320 212.505356,643.011780   C209.732269,647.279175 207.872101,647.024719 204.537018,644.093018   C186.122742,627.906250 169.069092,610.315186 151.610336,593.140503   C137.118896,578.884827 122.552216,564.705627 108.005974,550.505737   C106.355438,548.894470 104.621315,547.368713 102.342728,545.264832   C95.305939,556.671326 88.292206,567.512024 78.915138,577.355957   C74.298157,573.929993 70.628799,569.693481 66.939377,565.539978   C65.257103,563.646057 67.273277,562.186646 68.380463,560.837341   C73.664421,554.398010 79.088814,548.067383 83.403198,540.899048   C83.918465,540.042908 84.405449,539.168945 84.881874,538.290466   C89.443413,529.878479 88.816841,528.328674 79.522377,527.573242   C70.905418,526.872742 65.423714,522.509155 62.054214,514.793335   C60.061825,510.230957 59.611111,505.781433 62.126221,501.376556   C64.529953,497.166718 64.826614,492.982422 62.887402,488.520081   C60.161766,482.247955 59.742516,476.000214 63.442307,469.864502   C64.943573,467.374847 64.904182,464.626709 63.445057,462.235535   C59.450680,455.689636 60.382748,449.167633 63.207764,442.629791   C64.857246,438.812408 64.342934,435.347198 62.636005,431.632233   C56.909740,419.169464 65.226883,405.589752 79.003326,404.724518   C82.159431,404.526276 85.335281,404.518829 88.498268,404.590393   C91.407509,404.656189 92.615990,403.534241 92.718849,400.487671   C93.529846,376.468292 89.712891,353.774445 75.082146,333.781036   C69.584686,326.268555 63.370514,321.091278 53.852474,318.586182   C26.616339,311.417664 11.283329,292.144440 3.784660,265.839752   C2.829810,262.490234 2.078333,259.082733 1.116320,255.351044   C1.000000,252.299988 1.000000,249.599976 1.000000,246.449982  M574.835571,551.347229   C573.021240,551.563965 571.205872,551.772278 569.392822,551.999268   C565.839844,552.444031 562.565857,553.576050 562.513428,557.792664   C562.456848,562.344299 565.920776,563.456238 569.666992,563.780823   C591.276611,565.652832 612.901550,565.250000 634.512817,563.925110   C640.550720,563.554871 641.883545,561.617676 641.659302,556.323425   C641.417603,550.616089 637.363647,551.405518 633.754944,551.398682   C614.426453,551.362183 595.097900,551.356201 574.835571,551.347229  M77.320663,418.432465   C73.547440,420.870758 74.264366,424.334473 75.324516,427.755157   C76.309166,430.932281 79.151352,429.882446 81.274132,429.882050   C101.746674,429.878387 122.219238,429.768311 142.691635,429.659515   C144.179611,429.651611 145.682434,429.512390 147.150406,429.266998   C150.469437,428.712128 153.659027,427.512909 153.424225,423.520477   C153.208847,419.858154 149.943466,418.669464 146.917328,418.477570   C123.989708,417.023407 101.049286,416.432648 77.320663,418.432465  M75.464287,513.143188   C76.637573,515.203430 78.664726,514.586914 80.392105,514.589722   C99.503830,514.620483 118.615646,514.597107 137.727432,514.573059   C140.693619,514.569336 143.775879,515.159546 143.764786,510.321259   C143.750122,503.926697 143.317993,502.615967 137.985229,502.138397   C119.583351,500.490326 101.140312,500.788513 82.732468,501.867615   C74.478691,502.351440 73.491814,504.267334 75.464287,513.143188  M583.978455,480.609985   C601.287781,480.428589 618.609985,481.427551 635.906189,479.762939   C640.610291,479.310211 641.612976,476.626190 641.650146,472.680756   C641.688110,468.652039 639.890442,467.230438 635.823120,467.264374   C623.163879,467.370056 610.501831,467.074310 597.840576,467.037628   C591.179810,467.018341 584.518616,467.265472 577.857178,467.294769   C573.562195,467.313660 571.058228,469.888245 570.779541,473.600922   C570.526489,476.971741 573.743591,478.568939 576.687317,479.455505   C578.741333,480.074158 580.945435,480.194336 583.978455,480.609985  M77.861511,455.888031   C86.072701,457.752441 94.454910,456.803070 102.744438,457.211517   C117.194809,457.923553 131.693893,458.428894 146.148041,456.830414   C148.479538,456.572601 150.453644,455.954651 150.636887,453.144012   C150.829010,450.197052 149.861130,447.850189 146.922379,446.785339   C145.852386,446.397614 144.644928,446.350647 143.491425,446.237854   C125.868225,444.514404 108.203423,445.524353 90.556053,445.513977   C86.740608,445.511749 82.908577,446.011871 79.115349,446.515381   C76.902161,446.809143 74.894913,447.802704 74.462189,450.365356   C74.065201,452.716431 74.638161,454.680084 77.861511,455.888031  M634.528625,524.947998   C614.568054,523.809875 594.590149,524.454468 574.619385,524.391357   C573.137817,524.386658 571.642212,524.647583 570.176086,524.912231   C568.007690,525.303711 565.666504,525.771362 565.495728,528.535461   C565.317200,531.424377 566.644348,533.651794 569.322144,534.968628   C571.203918,535.894043 573.232056,535.696655 575.211426,535.697021   C595.187744,535.700867 615.164185,535.629578 635.140259,535.685059   C638.557678,535.694580 640.865906,535.297974 640.908630,530.951172   C640.948730,526.866089 640.051880,524.416321 634.528625,524.947998  M89.647018,474.356964   C85.626083,474.170868 81.656013,474.644653 77.753349,475.525848   C75.328560,476.073334 74.203835,477.771545 74.351265,480.322357   C74.495842,482.823853 75.569954,484.409821 78.192772,484.694550   C81.002724,484.999542 83.809952,485.574036 86.620628,485.588318   C105.101585,485.682129 123.583931,485.571381 142.063904,485.739014   C145.908707,485.773865 146.904251,484.204712 146.939850,480.707428   C146.976227,477.130707 146.254211,475.169525 142.039978,475.142212   C124.896751,475.031006 107.755325,474.642242 89.647018,474.356964  M632.397766,496.209229   C616.594116,495.928619 600.791199,495.573273 584.986328,495.419708   C581.012146,495.381104 577.021179,495.893921 573.057861,496.333435   C570.361877,496.632477 568.311279,497.771942 568.330505,501.028198   C568.348999,504.164032 570.021973,505.516998 572.927795,505.785065   C575.904358,506.059601 578.877686,506.591125 581.854492,506.606812   C599.495728,506.699677 617.137512,506.684845 634.779114,506.684937   C640.679260,506.684998 640.876709,506.239563 640.864075,500.517609   C640.850525,494.368866 636.325012,496.811829 632.397766,496.209229  M117.158783,161.378204   C116.620598,159.982758 116.219193,158.514526 115.521751,157.203827   C111.371140,149.403534 101.850563,146.511932 94.090858,150.632629   C86.824654,154.491257 83.718552,164.066040 87.540833,170.823547   C91.049362,177.026367 99.238297,181.001114 105.235054,179.411972   C112.933571,177.371857 117.727943,170.548325 117.158783,161.378204  M616.981567,832.664795   C618.870850,832.603210 620.494995,831.749695 622.107117,830.900818   C627.411011,828.107971 631.052734,821.914673 630.486267,816.707031   C629.745300,809.894897 625.432495,804.750122 618.774963,802.736511   C612.821472,800.935913 606.591125,802.879333 602.706970,807.800354   C598.887817,812.639221 597.863892,818.075073 600.498230,823.636841   C603.546326,830.072327 608.814026,833.347229 616.981567,832.664795  M292.085358,445.711395   C297.241486,446.203583 302.223785,446.180542 305.161560,440.810760   C308.604431,434.517639 306.153442,426.871338 299.762115,423.833527   C293.492310,420.853455 287.239838,423.451202 284.321503,430.248749   C281.320190,437.239594 283.831421,442.792023 292.085358,445.711395  M428.058350,556.602173   C434.057770,550.540100 434.641479,542.560608 429.394501,538.336365   C424.867401,534.691650 416.714233,534.777100 412.832642,538.509888   C408.814178,542.374268 408.526855,549.604004 412.200592,554.413147   C416.070404,559.478943 421.450378,560.414917 428.058350,556.602173  M346.452972,489.873138   C346.921417,497.178741 353.319611,504.236664 358.875488,503.576569   C363.482605,503.029205 369.238190,496.824493 369.763275,491.839142   C370.326935,486.487701 366.215179,480.877045 360.181396,478.764130   C356.253082,477.388489 352.062256,479.487915 348.746307,484.655426   C347.860260,486.036255 347.312836,487.634277 346.452972,489.873138  z"/>
<path fill="#363636" opacity="1.000000" stroke="none" d=" M276.460632,977.000000   C269.363098,967.793091 261.789764,959.398254 253.882248,951.278320   C251.622208,948.957520 249.511810,949.665527 247.124100,950.815002   C238.269699,955.077393 229.403229,959.315735 220.500748,963.476440   C218.628555,964.351501 216.715607,965.585876 214.142227,964.738159   C214.180267,960.398804 215.593231,956.495361 216.817703,952.621033   C223.236191,932.313049 229.709824,912.021423 236.363327,891.789490   C237.785706,887.464478 237.820847,883.526001 236.472702,879.164429   C227.518387,850.195068 217.144836,821.734436 206.213440,793.466736   C203.933212,787.570312 203.989105,787.586487 209.956985,785.399048   C215.428833,783.393494 220.871078,781.307007 226.325424,779.253662   C228.103165,778.584351 229.462265,777.772522 229.698883,775.477417   C231.624176,756.802673 233.740097,738.147400 235.634155,719.469666   C236.183563,714.051636 237.290756,712.293762 242.603790,712.751038   C262.787964,714.488281 282.535919,718.035034 300.334229,728.560730   C301.864868,729.465942 303.682068,730.160767 304.076080,732.302490   C303.091400,733.825806 301.703339,733.204773 300.523010,732.874023   C285.515015,728.669922 270.028595,728.000122 254.644257,726.541931   C251.607285,726.254089 250.524765,727.454102 250.208328,730.378967   C248.670883,744.589600 246.982315,758.784058 245.325592,772.981689   C244.959747,776.116760 244.500824,779.240967 244.093887,782.371338   C243.292068,788.539124 239.092957,791.243286 233.704041,793.160156   C224.025574,796.602661 223.986969,796.774170 227.460388,806.341797   C236.376846,830.902344 245.221191,855.487488 252.145447,880.703247   C252.941055,883.600525 254.662186,884.901428 257.204590,885.512573   C259.303345,886.017029 261.467438,886.488037 263.611237,886.529724   C283.104858,886.908936 302.545410,886.115234 321.948547,884.071045   C326.985779,883.540283 330.195892,880.965759 332.812012,877.085876   C342.960449,862.034912 348.588898,845.223633 351.622467,827.513977   C357.585236,792.703369 348.624237,761.267456 329.540649,732.210632   C326.980896,728.313049 324.557373,724.326233 322.053314,720.391846   C320.319611,717.667725 320.447083,715.238220 322.605560,712.662109   C351.078827,678.680725 385.655212,654.479431 430.560852,649.069885   C461.451172,645.348816 491.058777,652.830444 519.584900,664.613159   C521.735657,665.501587 523.816528,666.561707 525.912720,667.577393   C526.346497,667.787659 526.703857,668.155640 526.862122,668.274719   C527.107605,670.143616 526.088501,671.150940 525.345642,672.203491   C486.975983,726.575378 460.721161,786.950989 437.202393,848.761536   C433.936279,857.345337 434.080200,863.295044 439.979553,870.679749   C451.925934,885.633850 462.714661,901.513916 473.933990,917.045898   C475.071136,918.620117 476.582550,920.079712 476.614319,922.796021   C473.813812,923.724792 470.953308,923.241516 468.056458,922.853516   C458.835663,921.618713 449.592651,920.544983 440.382629,919.237122   C436.610199,918.701355 434.614471,920.066101 433.214386,923.617065   C429.366394,933.376343 425.098969,942.969604 421.180328,952.702148   C419.570892,956.699463 417.381195,957.748657 413.078369,956.496826   C402.492889,953.416992 392.373749,949.145874 382.193848,945.042419   C378.612274,943.598633 376.531921,944.167847 374.276184,947.264648   C367.117767,957.091858 359.692780,966.724915 352.185425,976.716492   C350.933319,977.000000 349.866669,977.000000 348.189514,976.742798   C339.748718,970.849182 331.946716,965.172974 324.080719,959.586914   C314.790802,952.989563 314.771942,953.029297 305.912292,960.589050   C303.252777,962.858398 300.393005,964.919495 297.916962,967.370850   C294.641907,970.613525 290.141327,972.601196 288.000000,977.000000   C284.307098,977.000000 280.614166,977.000000 276.460632,977.000000  z"/>
<path fill="#363636" opacity="1.000000" stroke="none" d=" M435.625000,1.000008   C444.632294,10.933797 453.316162,20.823599 461.856445,30.835867   C463.720032,33.020699 465.279358,33.235855 467.828064,31.952169   C476.753113,27.456957 485.787201,23.175419 494.828827,18.916647   C496.886139,17.947607 498.942383,16.641708 501.513519,17.113312   C503.063599,19.663729 501.471649,21.989908 500.820435,24.246143   C494.449402,46.320343 487.077026,68.077873 479.703979,89.829773   C478.174500,94.342056 478.204346,98.420517 479.695099,102.912727   C489.290344,131.826828 498.909882,160.732071 510.467896,188.936462   C512.147278,193.034485 511.472076,194.817184 507.229858,196.112289   C501.507690,197.859146 495.992126,200.273041 490.345947,202.282776   C487.649445,203.242599 486.564148,204.918121 486.276703,207.817062   C484.390808,226.837326 482.279602,245.835159 480.336609,264.849976   C480.010864,268.037628 478.255432,269.447357 475.391815,269.147430   C455.660461,267.081116 435.965790,264.761749 418.288727,254.640549   C416.076904,253.374130 413.604553,252.226028 412.303467,249.786758   C413.631226,248.284317 414.960846,248.810532 416.189117,249.117477   C430.948853,252.805801 446.019196,254.015762 461.137512,255.008545   C464.301605,255.216324 465.609619,254.633698 465.958313,251.289810   C467.025635,241.054123 468.409088,230.851532 469.653442,220.634109   C470.456665,214.038986 471.378510,207.453781 471.979309,200.839813   C472.631348,193.661850 476.796021,189.966156 483.368866,188.104813   C492.807404,185.431931 492.962006,186.673645 489.104370,176.049057   C480.755890,153.055801 471.982758,130.207596 465.486084,106.575722   C462.781677,96.738136 460.882355,95.511337 450.732452,95.369934   C432.062775,95.109833 413.442078,96.240662 394.821960,97.377327   C389.265503,97.716522 385.309692,100.112663 382.434479,105.176987   C367.982971,130.631775 360.974060,157.782364 363.437683,187.076523   C365.321411,209.475525 373.308075,229.721359 385.954712,248.222672   C388.867310,252.483643 391.459167,256.962646 394.257751,261.303162   C396.049500,264.082092 395.741119,266.478821 393.602234,269.010132   C368.123901,299.163330 337.789490,321.974548 298.511200,330.616760   C274.964172,335.797638 251.475235,333.093811 228.217392,327.884155   C215.658676,325.071014 203.672516,320.582550 192.080032,315.025909   C191.053833,314.534027 189.860641,314.215607 189.246796,312.889343   C188.961563,311.322327 190.167923,310.236084 191.005280,309.067322   C224.448196,262.387787 248.659943,210.954697 269.107147,157.575180   C273.097656,147.157562 277.051636,136.719040 281.386963,126.443932   C283.029755,122.550278 282.578857,119.666740 280.118439,116.357712   C268.089142,100.179382 256.203766,83.893433 244.361282,67.577461   C242.466431,64.966812 240.157486,62.485542 239.333252,58.721634   C245.532898,57.797287 251.166168,59.484062 256.837158,60.023399   C262.782532,60.588833 268.688263,61.634491 274.585236,62.625458   C279.200958,63.401115 281.946198,61.943573 283.673828,57.292850   C287.266785,47.620682 291.493317,38.185795 295.270355,28.579050   C296.653687,25.060541 298.640533,24.291599 302.240814,25.231995   C312.920044,28.021437 323.034515,32.325146 333.197693,36.471481   C337.487671,38.221684 340.111511,37.477795 342.811615,33.618557   C348.825012,25.023766 355.389618,16.816792 361.555267,8.325195   C363.774811,5.268339 365.910370,4.973202 369.136932,6.788424   C378.904083,12.283308 387.782135,19.063627 396.747131,25.695620   C400.158783,28.219465 402.513367,28.360329 405.728607,25.410286   C414.561798,17.305668 423.671967,9.502871 432.836243,1.290321   C433.750000,1.000000 434.500000,1.000000 435.625000,1.000008  z"/>
<path fill="#363636" opacity="1.000000" stroke="none" d=" M236.610474,631.676697   C251.012482,610.078796 265.220459,588.785156 279.113922,567.962830   C281.770477,567.595032 282.690125,568.986816 283.767639,569.920654   C313.586914,595.763672 343.394836,621.619934 373.170380,647.513306   C377.582550,651.350220 377.443878,653.055908 372.429382,656.171875   C368.475159,658.629089 364.189301,660.565674 360.308838,663.124817   C356.496094,665.639404 353.928497,664.554993 350.748474,661.747253   C328.907288,642.463135 307.082001,623.155579 284.593292,604.619690   C279.273529,600.234985 279.055237,600.247864 274.966583,605.726929   C260.916626,624.554810 248.568008,644.541077 235.344498,663.931763   C233.773285,666.235779 232.597992,668.867188 229.888657,670.879028   C225.937042,668.163696 222.839691,664.487366 219.599396,661.016174   C217.737534,659.021667 219.609055,657.269653 220.651245,655.684387   C225.863861,647.755310 231.153717,639.877075 236.610474,631.676697  z"/>
<path fill="#363636" opacity="1.000000" stroke="none" d=" M255.503479,659.218079   C255.791565,653.291199 259.200348,650.174377 263.922668,648.210571   C267.530884,646.710022 270.325806,648.588074 272.895050,650.837158   C277.397644,654.778687 278.323395,658.827271 275.900940,663.636414   C273.674805,668.055847 268.481049,670.840820 264.035309,669.999023   C258.485443,668.948181 255.991150,665.918884 255.503479,659.218079  z"/>
<path fill="#363636" opacity="1.000000" stroke="none" d=" M316.278870,650.556274   C324.868835,658.920349 324.381561,663.193542 314.614319,669.702148   C312.176361,671.326843 310.066650,671.454773 307.832886,669.594299   C307.322205,669.168945 306.795898,668.761963 306.293457,668.327209   C297.505524,660.722900 298.443634,653.893372 308.872864,648.498901   C311.981537,646.890930 313.871277,648.753601 316.278870,650.556274  z"/>
<path fill="#363636" opacity="1.000000" stroke="none" d=" M271.899353,841.346191   C264.923218,841.685669 259.518890,839.472656 255.247726,834.465515   C263.250916,826.561523 274.356781,825.463013 281.868195,831.681396   C285.365845,834.576843 285.254150,836.502563 281.343750,838.883789   C278.598724,840.555359 275.604553,841.461792 271.899353,841.346191  z"/>
<path fill="#363636" opacity="1.000000" stroke="none" d=" M389.900085,375.117188   C374.091553,361.550140 358.356567,348.435303 343.440643,334.387817   C338.576660,329.807007 338.666565,328.746246 344.408142,325.331268   C348.269104,323.034821 352.345856,321.093140 356.149597,318.711029   C359.459839,316.638000 361.788666,316.936493 364.891907,319.636566   C387.248718,339.088928 409.340698,358.854614 432.343842,377.554626   C437.161285,381.470886 437.269196,381.520874 441.108307,376.330627   C455.868195,356.376221 469.029144,335.331604 482.941132,314.798676   C483.856476,313.447693 484.396515,311.746155 486.588806,311.116760   C490.521637,313.588867 493.448151,317.457947 496.712128,320.917419   C498.617554,322.936920 496.545746,324.653656 495.521332,326.203308   C485.610840,341.195587 475.635071,356.144745 465.675964,371.104950   C457.284454,383.710297 448.892822,396.315552 440.493805,408.915924   C439.581696,410.284241 438.931610,411.875488 436.773346,413.079651   C420.675598,401.478729 405.570343,388.226166 389.900085,375.117188  z"/>
<path fill="#363636" opacity="1.000000" stroke="none" d=" M439.438171,323.881836   C440.193878,316.556946 442.592560,313.164520 447.838867,312.076538   C452.357086,311.139557 456.153931,312.778625 458.736847,316.443390   C461.276794,320.047180 462.133423,324.153320 459.340149,328.068024   C456.737061,331.716217 453.310211,334.717957 448.501007,333.538452   C443.828461,332.392487 439.886963,329.863251 439.438171,323.881836  z"/>
<path fill="#363636" opacity="1.000000" stroke="none" d=" M411.339966,314.593811   C418.225098,321.762115 415.871307,330.461548 406.525482,333.754822   C405.322601,334.178680 404.261353,334.134644 403.207153,333.515015   C402.352875,333.012817 401.492493,332.503357 400.709503,331.900208   C391.283173,324.639282 392.130554,316.982910 402.872498,311.524811   C406.695099,309.582458 408.618561,312.606445 411.339966,314.593811  z"/>
<path fill="#363636" opacity="1.000000" stroke="none" d=" M453.004822,141.594269   C456.397064,142.848358 458.915741,144.648544 460.898743,147.166214   C454.421234,155.401413 441.079590,156.492676 433.818359,149.638245   C431.093201,147.065781 431.513763,145.115005 434.390167,143.290405   C440.150696,139.636292 446.296478,139.579849 453.004822,141.594269  z"/>
</svg>