<?xml version="1.0" standalone="no"?>
<!DOCTYPE svg PUBLIC "-//W3C//DTD SVG 20010904//EN"
 "http://www.w3.org/TR/2001/REC-SVG-20010904/DTD/svg10.dtd">
<svg version="1.0" xmlns="http://www.w3.org/2000/svg"
 width="600.000000pt" height="600.000000pt" viewBox="0 0 600.000000 600.000000"
 preserveAspectRatio="xMidYMid meet">

<g transform="translate(0.000000,600.000000) scale(0.100000,-0.100000)"
fill="#000000" stroke="none">
<path d="M2937 5908 c-194 -286 -490 -586 -902 -913 -49 -39 -196 -152 -325
-250 -445 -337 -598 -463 -779 -640 -403 -394 -556 -710 -590 -1223 -38 -583
169 -1004 602 -1223 355 -180 888 -210 1281 -73 199 69 403 224 513 390 20 30
37 53 39 52 3 -4 -13 -210 -32 -398 -61 -619 -178 -963 -410 -1210 -166 -176
-387 -299 -695 -384 l-124 -35 1485 0 1485 1 -105 28 c-291 79 -503 187 -665
342 -293 278 -410 635 -480 1468 -8 96 -15 179 -15 183 0 5 26 -27 58 -70 255
-343 685 -496 1238 -442 410 40 719 191 920 451 168 217 247 539 223 907 -35
528 -190 849 -606 1251 -157 153 -333 297 -738 605 -358 273 -564 439 -720
581 -214 196 -410 417 -532 600 -31 46 -59 84 -63 84 -3 0 -32 -37 -63 -82z"/>
</g>
</svg>
